<svg width="68" height="10" viewBox="0 0 68 10" fill="none" xmlns="http://www.w3.org/2000/svg">
<path d="M6.67188 9H8.58789L5.65234 0.544922H3.57227L0.636719 9H2.41211L3.0625 6.94922H6.0332L6.67188 9ZM4.50391 2.26172H4.60938L5.6582 5.625H3.44336L4.50391 2.26172ZM10.0293 0.544922V9H11.7988V6.33398H13.4688C15.25 6.33398 16.4863 5.17383 16.4863 3.45117C16.4863 1.70508 15.2969 0.544922 13.5566 0.544922H10.0293ZM11.7988 1.95117H13.0879C14.1074 1.95117 14.6875 2.47266 14.6875 3.45703C14.6875 4.41797 14.0957 4.94531 13.082 4.94531H11.7988V1.95117ZM18.1152 0.544922V9H19.8848V6.33398H21.5547C23.3359 6.33398 24.5723 5.17383 24.5723 3.45117C24.5723 1.70508 23.3828 0.544922 21.6426 0.544922H18.1152ZM19.8848 1.95117H21.1738C22.1934 1.95117 22.7734 2.47266 22.7734 3.45703C22.7734 4.41797 22.1816 4.94531 21.168 4.94531H19.8848V1.95117ZM27.9707 5.90625H29.418L30.9941 9H32.998L31.2168 5.64258C32.1895 5.26172 32.752 4.32422 32.752 3.24023C32.752 1.57031 31.6094 0.544922 29.752 0.544922H26.2012V9H27.9707V5.90625ZM27.9707 1.92773H29.5059C30.3848 1.92773 30.9355 2.44336 30.9355 3.26367C30.9355 4.10156 30.4141 4.58789 29.5234 4.58789H27.9707V1.92773ZM38.2305 0.328125C35.7402 0.328125 34.1582 2.02734 34.1582 4.76953C34.1582 7.50586 35.7168 9.2168 38.2305 9.2168C40.7266 9.2168 42.2969 7.50586 42.2969 4.76953C42.2969 2.0332 40.7207 0.328125 38.2305 0.328125ZM38.2305 1.82812C39.6016 1.82812 40.4863 2.9707 40.4863 4.76953C40.4863 6.5625 39.6074 7.7168 38.2305 7.7168C36.8359 7.7168 35.9688 6.5625 35.9688 4.76953C35.9688 2.9707 36.8535 1.82812 38.2305 1.82812ZM48.1035 9L50.9219 0.544922H49.0176L47.1309 7.06641H47.0254L45.1035 0.544922H43.1055L45.9648 9H48.1035ZM57.9707 7.54102H54.1387V5.40234H57.7539V4.04297H54.1387V2.00391H57.9707V0.544922H52.3691V9H57.9707V7.54102ZM59.834 0.544922V9H63.1621C65.6934 9 67.1289 7.45312 67.1289 4.7168C67.1289 2.0625 65.6758 0.544922 63.1621 0.544922H59.834ZM61.6035 2.00391H62.8809C64.416 2.00391 65.3242 3 65.3242 4.74609C65.3242 6.55664 64.4453 7.54102 62.8809 7.54102H61.6035V2.00391Z" fill="#42526E"/>
</svg>
