<svg width="48" height="48" viewBox="0 0 48 48" fill="none" xmlns="http://www.w3.org/2000/svg">
<circle cx="24" cy="24" r="24" fill="#FF5630"/>
<rect width="32.004" height="32.004" transform="translate(8.40039 8.3999)" fill="white" fill-opacity="0.01"/>
<path d="M17.0517 19.0681H19.0679C19.8044 19.0681 20.4014 19.6652 20.4014 20.4016C20.4014 21.1381 19.8044 21.7351 19.0679 21.7351H13.7339C12.9974 21.7351 12.4004 21.1381 12.4004 20.4016V15.0676C12.4004 14.3312 12.9974 13.7341 13.7339 13.7341C14.4704 13.7341 15.0674 14.3312 15.0674 15.0676V17.2591C16.0767 15.8942 17.3734 14.7497 18.8966 13.9054C24.6938 10.6919 31.9984 12.7865 35.2118 18.5837C38.4253 24.3809 36.3307 31.6854 30.5335 34.8989C24.7363 38.1123 17.4318 36.0178 14.2183 30.2206C13.8613 29.5764 14.094 28.7648 14.7381 28.4078C15.3823 28.0507 16.1939 28.2835 16.5509 28.9276C19.0503 33.4365 24.7316 35.0656 29.2405 32.5663C33.7495 30.0669 35.3786 24.3856 32.8792 19.8767C30.3799 15.3678 24.6986 13.7387 20.1896 16.238C18.921 16.9412 17.857 17.9088 17.0517 19.0681ZM26.0486 20.4075V25.1841L28.9623 28.0978C29.481 28.6165 29.481 29.4646 28.9623 29.9834C28.4435 30.5021 27.5954 30.5021 27.0767 29.9834L23.783 26.691C23.5363 26.4483 23.3816 26.1135 23.3816 25.7415V20.4075C23.3816 20.4055 23.3816 20.4036 23.3816 20.4016V17.7346C23.3816 16.9982 23.9786 16.4011 24.7151 16.4011C25.4516 16.4011 26.0486 16.9982 26.0486 17.7346V20.4016C26.0486 20.4036 26.0486 20.4055 26.0486 20.4075H26.0486Z" fill="white"/>
</svg>
