<svg width="24" height="24" viewBox="0 0 24 24" fill="none" xmlns="http://www.w3.org/2000/svg">
<rect width="24" height="24" transform="matrix(1 0 0 -1 0 24)" fill="white" fill-opacity="0.01"/>
<path fill-rule="evenodd" clip-rule="evenodd" d="M4.02026 4.77C3.98715 4.608 3.99472 4.44033 4.0423 4.28198C4.08988 4.12363 4.17598 3.97955 4.29289 3.86263C4.40981 3.74572 4.55389 3.65962 4.71224 3.61204C4.87059 3.56446 5.03826 3.55688 5.20026 3.59L9.01026 4.37L4.80026 8.58L4.02026 4.77ZM9.94126 7.39L7.82126 9.51L16.3063 18H16.3083L18.4293 15.879L9.94026 7.389L9.94126 7.39ZM19.8443 17.293L17.7243 19.415C17.5384 19.6009 17.3176 19.7483 17.0746 19.8487C16.8316 19.9491 16.5712 20.0005 16.3083 20C15.7963 20 15.2843 19.805 14.8933 19.415L5.13626 9.657L10.0863 4.707L19.8433 14.465C20.2182 14.8401 20.4288 15.3487 20.4288 15.879C20.4288 16.4093 20.2182 16.9179 19.8433 17.293H19.8443Z" fill="#5E6C84"/>
</svg>
