<svg width="20" height="16" viewBox="0 0 20 16" fill="none" xmlns="http://www.w3.org/2000/svg">
<path fill-rule="evenodd" clip-rule="evenodd" d="M10.0005 14C5.46355 14 2.0013 9.74 2.0013 8C2.0013 5.999 5.45955 2 10.0005 2C14.3773 2 17.9987 5.973 17.9987 8C17.9987 9.74 14.5364 14 10.0005 14ZM10.0005 0C4.47991 0 0 4.841 0 8C0 11.086 4.57698 16 10.0005 16C15.424 16 20 11.086 20 8C20 4.841 15.5211 0 10.0005 0ZM9.9774 9.9844C8.8744 9.9844 7.9774 9.0874 7.9774 7.9844C7.9774 6.8814 8.8744 5.9844 9.9774 5.9844C11.0804 5.9844 11.9774 6.8814 11.9774 7.9844C11.9774 9.0874 11.0804 9.9844 9.9774 9.9844ZM9.9774 3.9844C7.7714 3.9844 5.9774 5.7784 5.9774 7.9844C5.9774 10.1904 7.7714 11.9844 9.9774 11.9844C12.1834 11.9844 13.9774 10.1904 13.9774 7.9844C13.9774 5.7784 12.1834 3.9844 9.9774 3.9844Z" fill="#42526E"/>
</svg>
