<svg width="48" height="48" viewBox="0 0 48 48" fill="none" xmlns="http://www.w3.org/2000/svg">
<circle cx="24" cy="24" r="24" fill="#36B37E"/>
<rect width="32.004" height="32.004" transform="translate(8.40039 8.3999)" fill="white" fill-opacity="0.01"/>
<path d="M36.4049 31.0694H15.0622C14.3328 31.0694 13.7354 30.4666 13.7354 29.7239V16.4009C13.7354 16.0472 13.5949 15.708 13.3448 15.458C13.0947 15.2079 12.7555 15.0674 12.4019 15.0674C12.0482 15.0674 11.709 15.2079 11.4589 15.458C11.2089 15.708 11.0684 16.0472 11.0684 16.4009V29.7239C11.0666 30.7854 11.4862 31.8042 12.235 32.5565C12.9839 33.3088 14.0007 33.7332 15.0622 33.7364H36.4049C36.7585 33.7364 37.0977 33.5959 37.3478 33.3458C37.5979 33.0957 37.7384 32.7566 37.7384 32.4029C37.7384 32.0492 37.5979 31.71 37.3478 31.46C37.0977 31.2099 36.7585 31.0694 36.4049 31.0694ZM32.4044 20.4014V24.4019C32.4044 24.7556 32.5449 25.0947 32.7949 25.3448C33.045 25.5949 33.3842 25.7354 33.7379 25.7354C34.0915 25.7354 34.4307 25.5949 34.6808 25.3448C34.9309 25.0947 35.0714 24.7556 35.0714 24.4019V19.0679C35.0714 18.7142 34.9309 18.375 34.6808 18.125C34.4307 17.8749 34.0915 17.7344 33.7379 17.7344H28.4039C28.0502 17.7344 27.711 17.8749 27.4609 18.125C27.2109 18.375 27.0704 18.7142 27.0704 19.0679C27.0704 19.4215 27.2109 19.7607 27.4609 20.0108C27.711 20.2609 28.0502 20.4014 28.4039 20.4014H32.4044Z" fill="white"/>
<path d="M26.1276 26.6782C26.3777 26.9282 26.7168 27.0686 27.0704 27.0686C27.424 27.0686 27.7631 26.9282 28.0132 26.6782L33.3472 21.3442C33.4745 21.2212 33.5761 21.074 33.646 20.9113C33.7159 20.7486 33.7527 20.5736 33.7542 20.3966C33.7557 20.2195 33.722 20.0439 33.655 19.88C33.5879 19.7162 33.4889 19.5673 33.3637 19.4421C33.2385 19.3169 33.0896 19.2178 32.9257 19.1508C32.7618 19.0837 32.5862 19.05 32.4092 19.0515C32.2321 19.0531 32.0571 19.0899 31.8944 19.1598C31.7317 19.2296 31.5846 19.3312 31.4616 19.4586L27.0704 23.8498L24.0127 20.7921C23.7626 20.5421 23.4235 20.4017 23.0699 20.4017C22.7163 20.4017 22.3771 20.5421 22.1271 20.7921L16.7931 26.1261C16.5502 26.3776 16.4158 26.7144 16.4188 27.0641C16.4218 27.4137 16.5621 27.7482 16.8093 27.9954C17.0566 28.2427 17.391 28.3829 17.7407 28.3859C18.0903 28.389 18.4271 28.2546 18.6786 28.0117L23.0699 23.6205L26.1276 26.6782Z" fill="white"/>
</svg>
