<svg width="48" height="48" viewBox="0 0 48 48" fill="none" xmlns="http://www.w3.org/2000/svg">
<circle cx="24" cy="24" r="24" fill="#FF991F"/>
<rect width="32.004" height="32.004" transform="translate(8.40039 8.3999)" fill="white" fill-opacity="0.01"/>
<path d="M35.0709 16.4009C35.0709 15.6644 34.4738 15.0674 33.7374 15.0674C33.0009 15.0674 32.4039 15.6644 32.4039 16.4009V21.7349C32.4039 22.4714 33.0009 23.0684 33.7374 23.0684C34.4738 23.0684 35.0709 22.4714 35.0709 21.7349V16.4009Z" fill="white"/>
<path d="M36.4044 17.7344H31.0704C30.3339 17.7344 29.7369 18.3314 29.7369 19.0679C29.7369 19.8044 30.3339 20.4014 31.0704 20.4014H36.4044C37.1408 20.4014 37.7379 19.8044 37.7379 19.0679C37.7379 18.3314 37.1408 17.7344 36.4044 17.7344Z" fill="white"/>
<path fill-rule="evenodd" clip-rule="evenodd" d="M15.0684 27.0689C15.0684 25.5954 16.2712 24.4019 17.7474 24.4019H28.3914C29.8715 24.4019 31.0704 25.594 31.0704 27.0769V32.9976C31.0704 37.5382 15.0684 37.5382 15.0684 32.9976V27.0689Z" fill="white"/>
<path d="M23.0694 23.0684C26.0152 23.0684 28.4034 20.6803 28.4034 17.7344C28.4034 14.7885 26.0152 12.4004 23.0694 12.4004C20.1235 12.4004 17.7354 14.7885 17.7354 17.7344C17.7354 20.6803 20.1235 23.0684 23.0694 23.0684Z" fill="white"/>
</svg>
