<svg width="48" height="48" viewBox="0 0 48 48" fill="none" xmlns="http://www.w3.org/2000/svg">
<circle cx="24" cy="24" r="24" fill="#00A3BF"/>
<rect width="32" height="32" transform="translate(8 8)" fill="white" fill-opacity="0.01"/>
<path d="M29.3333 24C31.5425 24 33.3333 22.2091 33.3333 20C33.3333 17.7909 31.5425 16 29.3333 16C27.1242 16 25.3333 17.7909 25.3333 20C25.3333 22.2091 27.1242 24 29.3333 24Z" fill="white"/>
<path d="M18.6667 20C20.8758 20 22.6667 18.2091 22.6667 16C22.6667 13.7909 20.8758 12 18.6667 12C16.4575 12 14.6667 13.7909 14.6667 16C14.6667 18.2091 16.4575 20 18.6667 20Z" fill="white"/>
<path fill-rule="evenodd" clip-rule="evenodd" d="M22.6667 28C22.6667 26.5267 23.8493 25.3333 25.3333 25.3333H33.3333C34.8067 25.3333 36 26.5133 36 28V32.9733C36 37.0093 22.6667 37.0093 22.6667 32.9733V28Z" fill="white"/>
<path fill-rule="evenodd" clip-rule="evenodd" d="M25.3333 24C25.3339 23.6497 25.2652 23.3027 25.1314 22.9789C24.9976 22.6551 24.8012 22.3609 24.5535 22.1132C24.3057 21.8655 24.0116 21.6691 23.6878 21.5353C23.364 21.4014 23.017 21.3328 22.6667 21.3333H14.6667C13.1827 21.3333 12 22.5293 12 24.004V29.1053C12 31.6667 17.4053 32.4627 21.3333 31.7507V28.008C21.3325 27.4824 21.4351 26.9618 21.6355 26.4759C21.8359 25.9901 22.13 25.5484 22.5011 25.1762C22.8721 24.804 23.3129 24.5086 23.7982 24.3068C24.2835 24.1049 24.8038 24.0007 25.3293 24H25.3333Z" fill="white"/>
</svg>
