<svg width="22" height="20" viewBox="0 0 22 20" fill="none" xmlns="http://www.w3.org/2000/svg">
<path d="M9.00055 17.9999V13.4999C9.00055 12.9695 9.21126 12.4608 9.58633 12.0857C9.96141 11.7106 10.4701 11.4999 11.0005 11.4999C11.531 11.4999 12.0397 11.7106 12.4148 12.0857C12.7898 12.4608 13.0005 12.9695 13.0005 13.4999V17.9999H17.0005C17.2658 17.9999 17.5201 17.8946 17.7077 17.707C17.8952 17.5195 18.0005 17.2651 18.0005 16.9999V9.16893L11.7075 2.87293C11.52 2.68545 11.2657 2.58014 11.0005 2.58014C10.7354 2.58014 10.4811 2.68545 10.2935 2.87293L4.00055 9.16893V16.9999C4.00055 17.2651 4.1059 17.5195 4.29344 17.707C4.48098 17.8946 4.73533 17.9999 5.00055 17.9999H9.00055ZM20.0005 11.1699V16.9999C20.0005 17.7956 19.6845 18.5586 19.1219 19.1212C18.5593 19.6839 17.7962 19.9999 17.0005 19.9999H5.00055C4.2049 19.9999 3.44184 19.6839 2.87923 19.1212C2.31662 18.5586 2.00055 17.7956 2.00055 16.9999V11.1699L1.96055 11.2099C1.57055 11.5999 0.930547 11.5999 0.540547 11.2099C0.150547 10.8199 0.150547 10.1799 0.540547 9.78993L8.87955 1.45893C9.44213 0.896513 10.2051 0.580566 11.0005 0.580566C11.796 0.580566 12.559 0.896513 13.1215 1.45893L21.4605 9.78993C21.8505 10.1799 21.8505 10.8199 21.4605 11.2099C21.0705 11.5999 20.4305 11.5999 20.0405 11.2099L20.0005 11.1699Z" fill="#E6FFF9"/>
</svg>
