<svg width="117" height="16" viewBox="0 0 117 16" fill="none" xmlns="http://www.w3.org/2000/svg">
<rect width="117" height="16" rx="3" fill="#EAE6FF"/>
<path d="M6.56201 12V8.94922H9.71484V7.66553H6.56201V5.58691H10.0156V4.24951H4.93994V12H6.56201ZM13.1362 12V4.24951H11.5142V12H13.1362ZM16.5684 12V7.04248H16.665L20.2422 12H21.585V4.24951H20.0327V9.18555H19.936L16.3696 4.24951H15.0161V12H16.5684ZM28.4492 12H30.2056L27.5146 4.24951H25.6079L22.917 12H24.5444L25.1406 10.1201H27.8638L28.4492 12ZM26.4619 5.82324H26.5586L27.52 8.90625H25.4897L26.4619 5.82324ZM33.0791 12V7.04248H33.1758L36.7529 12H38.0957V4.24951H36.5435V9.18555H36.4468L32.8804 4.24951H31.5269V12H33.0791ZM43.2734 12.1987C45.1426 12.1987 46.5068 11.0654 46.6411 9.41113H45.062C44.9062 10.2651 44.208 10.813 43.2788 10.813C42.0542 10.813 41.2969 9.78174 41.2969 8.12207C41.2969 6.4624 42.0542 5.43115 43.2734 5.43115C44.1973 5.43115 44.9009 6.02197 45.0566 6.91895H46.6357C46.5176 5.25391 45.1104 4.05078 43.2734 4.05078C41.0229 4.05078 39.6372 5.60303 39.6372 8.12207C39.6372 10.6411 41.0283 12.1987 43.2734 12.1987ZM53.269 10.6626H49.7563V8.70215H53.0703V7.45605H49.7563V5.58691H53.269V4.24951H48.1343V12H53.269V10.6626ZM61.1055 12.1987C62.9746 12.1987 64.3389 11.0654 64.4731 9.41113H62.894C62.7383 10.2651 62.04 10.813 61.1108 10.813C59.8862 10.813 59.1289 9.78174 59.1289 8.12207C59.1289 6.4624 59.8862 5.43115 61.1055 5.43115C62.0293 5.43115 62.7329 6.02197 62.8887 6.91895H64.4678C64.3496 5.25391 62.9424 4.05078 61.1055 4.05078C58.855 4.05078 57.4692 5.60303 57.4692 8.12207C57.4692 10.6411 58.8604 12.1987 61.1055 12.1987ZM69.3555 4.05078C67.0728 4.05078 65.6226 5.6084 65.6226 8.12207C65.6226 10.6304 67.0513 12.1987 69.3555 12.1987C71.6436 12.1987 73.083 10.6304 73.083 8.12207C73.083 5.61377 71.6382 4.05078 69.3555 4.05078ZM69.3555 5.42578C70.6123 5.42578 71.4233 6.47314 71.4233 8.12207C71.4233 9.76562 70.6177 10.8237 69.3555 10.8237C68.0771 10.8237 67.2822 9.76562 67.2822 8.12207C67.2822 6.47314 68.0933 5.42578 69.3555 5.42578ZM76.1768 12V7.04248H76.2734L79.8506 12H81.1934V4.24951H79.6411V9.18555H79.5444L75.978 4.24951H74.6245V12H76.1768ZM86.5806 12V5.58691H88.9062V4.24951H82.6328V5.58691H84.9585V12H86.5806ZM91.9624 9.16406H93.2891L94.7339 12H96.5708L94.938 8.92236C95.8296 8.57324 96.3452 7.71387 96.3452 6.72021C96.3452 5.18945 95.2979 4.24951 93.5952 4.24951H90.3403V12H91.9624V9.16406ZM91.9624 5.51709H93.3696C94.1753 5.51709 94.6802 5.98975 94.6802 6.7417C94.6802 7.50977 94.2021 7.95557 93.3857 7.95557H91.9624V5.51709ZM101.367 4.05078C99.0845 4.05078 97.6343 5.6084 97.6343 8.12207C97.6343 10.6304 99.063 12.1987 101.367 12.1987C103.655 12.1987 105.095 10.6304 105.095 8.12207C105.095 5.61377 103.65 4.05078 101.367 4.05078ZM101.367 5.42578C102.624 5.42578 103.435 6.47314 103.435 8.12207C103.435 9.76562 102.629 10.8237 101.367 10.8237C100.089 10.8237 99.2939 9.76562 99.2939 8.12207C99.2939 6.47314 100.105 5.42578 101.367 5.42578ZM111.707 10.6357H108.258V4.24951H106.636V12H111.707V10.6357Z" fill="#42526E"/>
</svg>
