<svg width="55" height="10" viewBox="0 0 55 10" fill="none" xmlns="http://www.w3.org/2000/svg">
<path d="M0.0644531 0.544922V9H1.83398V6.33398H3.50391C5.28516 6.33398 6.52148 5.17383 6.52148 3.45117C6.52148 1.70508 5.33203 0.544922 3.5918 0.544922H0.0644531ZM1.83398 1.95117H3.12305C4.14258 1.95117 4.72266 2.47266 4.72266 3.45703C4.72266 4.41797 4.13086 4.94531 3.11719 4.94531H1.83398V1.95117ZM13.752 7.54102H9.91992V5.40234H13.5352V4.04297H9.91992V2.00391H13.752V0.544922H8.15039V9H13.752V7.54102ZM17.3086 9V3.5918H17.4141L21.3164 9H22.7812V0.544922H21.0879V5.92969H20.9824L17.0918 0.544922H15.6152V9H17.3086ZM24.8379 0.544922V9H28.166C30.6973 9 32.1328 7.45312 32.1328 4.7168C32.1328 2.0625 30.6797 0.544922 28.166 0.544922H24.8379ZM26.6074 2.00391H27.8848C29.4199 2.00391 30.3281 3 30.3281 4.74609C30.3281 6.55664 29.4492 7.54102 27.8848 7.54102H26.6074V2.00391ZM35.584 9V0.544922H33.8145V9H35.584ZM39.3281 9V3.5918H39.4336L43.3359 9H44.8008V0.544922H43.1074V5.92969H43.002L39.1113 0.544922H37.6348V9H39.3281ZM54.2871 5.56641V4.49414H50.7363V5.7832H52.5703L52.5645 5.94141C52.5293 6.99609 51.7266 7.70508 50.5664 7.70508C49.1719 7.70508 48.293 6.58594 48.293 4.74609C48.293 2.94141 49.1309 1.83398 50.4961 1.83398C51.4805 1.83398 52.1895 2.33789 52.4531 3.22266H54.2109C53.9648 1.4707 52.4941 0.328125 50.4961 0.328125C48.0352 0.328125 46.4824 2.04492 46.4824 4.76367C46.4824 7.52344 48.0234 9.2168 50.5371 9.2168C52.8457 9.2168 54.2871 7.81055 54.2871 5.56641Z" fill="#42526E"/>
</svg>
