<svg width="105" height="26" viewBox="0 0 105 26" fill="none" xmlns="http://www.w3.org/2000/svg">
<path d="M2.37305 5.74805H4.22461L5.94727 9H7.46484L5.56641 5.54297C6.59766 5.19727 7.20703 4.27148 7.20703 3.12891C7.20703 1.55273 6.11133 0.544922 4.40625 0.544922H1.06055V9H2.37305V5.74805ZM2.37305 1.64648H4.22461C5.23828 1.64648 5.85938 2.21484 5.85938 3.1582C5.85938 4.125 5.27344 4.66992 4.25977 4.66992H2.37305V1.64648ZM10.6816 9.10547C11.5195 9.10547 12.2168 8.74219 12.5977 8.09766H12.6973V9H13.9102V4.64648C13.9102 3.31055 13.0078 2.51367 11.4082 2.51367C9.96094 2.51367 8.92969 3.21094 8.80078 4.2832H10.0195C10.1602 3.82031 10.6465 3.55664 11.3496 3.55664C12.2109 3.55664 12.6562 3.94922 12.6562 4.64648V5.20312L10.9277 5.30859C9.41016 5.40234 8.55469 6.06445 8.55469 7.20703C8.55469 8.36719 9.45117 9.10547 10.6816 9.10547ZM11.0039 8.0918C10.3184 8.0918 9.82031 7.74609 9.82031 7.1543C9.82031 6.57422 10.2188 6.26367 11.0977 6.20508L12.6562 6.09961V6.65039C12.6562 7.4707 11.9531 8.0918 11.0039 8.0918ZM15.7031 9H16.9629V5.26758C16.9629 4.24219 17.5547 3.60938 18.4863 3.60938C19.418 3.60938 19.8633 4.125 19.8633 5.17969V9H21.123V4.88086C21.123 3.36328 20.3379 2.51367 18.9141 2.51367C17.9531 2.51367 17.3203 2.94141 17.0098 3.64453H16.916V2.63672H15.7031V9ZM25.2305 9.10547C26.1094 9.10547 26.8535 8.68945 27.2344 7.99219H27.334V9H28.541V0.140625H27.2812V3.64453H27.1875C26.8418 2.94727 26.1035 2.52539 25.2305 2.52539C23.6191 2.52539 22.582 3.80859 22.582 5.8125C22.582 7.82812 23.6074 9.10547 25.2305 9.10547ZM25.5879 3.60352C26.6426 3.60352 27.3047 4.45898 27.3047 5.81836C27.3047 7.18945 26.6484 8.02734 25.5879 8.02734C24.5215 8.02734 23.8828 7.20117 23.8828 5.81836C23.8828 4.44141 24.5273 3.60352 25.5879 3.60352ZM33.1289 9.12305C34.9922 9.12305 36.1348 7.875 36.1348 5.81836C36.1348 3.76172 34.9863 2.51367 33.1289 2.51367C31.2656 2.51367 30.1172 3.76758 30.1172 5.81836C30.1172 7.875 31.2598 9.12305 33.1289 9.12305ZM33.1289 8.05078C32.0332 8.05078 31.418 7.23633 31.418 5.81836C31.418 4.40039 32.0332 3.58008 33.1289 3.58008C34.2188 3.58008 34.8398 4.40039 34.8398 5.81836C34.8398 7.23047 34.2188 8.05078 33.1289 8.05078ZM37.6523 9H38.9121V5.0918C38.9121 4.25977 39.4922 3.60938 40.2598 3.60938C41.0098 3.60938 41.4902 4.06055 41.4902 4.78711V9H42.7266V4.97461C42.7266 4.20703 43.2598 3.60938 44.0742 3.60938C44.9004 3.60938 45.3105 4.03711 45.3105 4.91602V9H46.5703V4.61133C46.5703 3.28711 45.8203 2.51367 44.5312 2.51367C43.6465 2.51367 42.9141 2.96484 42.5918 3.65039H42.4922C42.2109 2.96484 41.6074 2.51367 40.7344 2.51367C39.8848 2.51367 39.2402 2.93555 38.959 3.65039H38.8652V2.63672H37.6523V9ZM57.0234 4.68164C56.8594 3.44531 55.8926 2.51367 54.293 2.51367C52.4355 2.51367 51.3047 3.77344 51.3047 5.79492C51.3047 7.85742 52.4414 9.12305 54.2988 9.12305C55.875 9.12305 56.8594 8.23828 57.0234 6.98438H55.7988C55.6348 7.67578 55.0898 8.05078 54.293 8.05078C53.2441 8.05078 52.5938 7.20117 52.5938 5.79492C52.5938 4.41797 53.2383 3.58594 54.293 3.58594C55.1367 3.58594 55.6523 4.06055 55.7988 4.68164H57.0234ZM61.1602 9.12305C63.0234 9.12305 64.166 7.875 64.166 5.81836C64.166 3.76172 63.0176 2.51367 61.1602 2.51367C59.2969 2.51367 58.1484 3.76758 58.1484 5.81836C58.1484 7.875 59.291 9.12305 61.1602 9.12305ZM61.1602 8.05078C60.0645 8.05078 59.4492 7.23633 59.4492 5.81836C59.4492 4.40039 60.0645 3.58008 61.1602 3.58008C62.25 3.58008 62.8711 4.40039 62.8711 5.81836C62.8711 7.23047 62.25 8.05078 61.1602 8.05078ZM65.6836 9H66.9434V5.0918C66.9434 4.25977 67.5234 3.60938 68.291 3.60938C69.041 3.60938 69.5215 4.06055 69.5215 4.78711V9H70.7578V4.97461C70.7578 4.20703 71.291 3.60938 72.1055 3.60938C72.9316 3.60938 73.3418 4.03711 73.3418 4.91602V9H74.6016V4.61133C74.6016 3.28711 73.8516 2.51367 72.5625 2.51367C71.6777 2.51367 70.9453 2.96484 70.623 3.65039H70.5234C70.2422 2.96484 69.6387 2.51367 68.7656 2.51367C67.916 2.51367 67.2715 2.93555 66.9902 3.65039H66.8965V2.63672H65.6836V9ZM76.3711 9H77.6309V5.0918C77.6309 4.25977 78.2109 3.60938 78.9785 3.60938C79.7285 3.60938 80.209 4.06055 80.209 4.78711V9H81.4453V4.97461C81.4453 4.20703 81.9785 3.60938 82.793 3.60938C83.6191 3.60938 84.0293 4.03711 84.0293 4.91602V9H85.2891V4.61133C85.2891 3.28711 84.5391 2.51367 83.25 2.51367C82.3652 2.51367 81.6328 2.96484 81.3105 3.65039H81.2109C80.9297 2.96484 80.3262 2.51367 79.4531 2.51367C78.6035 2.51367 77.959 2.93555 77.6777 3.65039H77.584V2.63672H76.3711V9ZM91.2422 7.29492C91.0078 7.81055 90.4863 8.0918 89.7246 8.0918C88.7168 8.0918 88.0664 7.36523 88.0254 6.21094V6.15234H92.5312V5.71875C92.5312 3.72656 91.459 2.51367 89.6836 2.51367C87.8848 2.51367 86.7422 3.80859 86.7422 5.83008C86.7422 7.86328 87.8613 9.12305 89.6895 9.12305C91.1484 9.12305 92.1797 8.41992 92.4551 7.29492H91.2422ZM89.6777 3.53906C90.6094 3.53906 91.2188 4.21289 91.248 5.24414H88.0254C88.0957 4.21875 88.7461 3.53906 89.6777 3.53906ZM94.043 9H95.3027V5.26758C95.3027 4.24219 95.8945 3.60938 96.8262 3.60938C97.7578 3.60938 98.2031 4.125 98.2031 5.17969V9H99.4629V4.88086C99.4629 3.36328 98.6777 2.51367 97.2539 2.51367C96.293 2.51367 95.6602 2.94141 95.3496 3.64453H95.2559V2.63672H94.043V9ZM101.684 1.03125V2.6543H100.67V3.66211H101.684V7.32422C101.684 8.54883 102.24 9.04102 103.641 9.04102C103.887 9.04102 104.121 9.01172 104.326 8.97656V7.97461C104.15 7.99219 104.039 8.00391 103.846 8.00391C103.219 8.00391 102.943 7.70508 102.943 7.01953V3.66211H104.326V2.6543H102.943V1.03125H101.684ZM1.35938 17.0312V18.6543H0.345703V19.6621H1.35938V23.3242C1.35938 24.5488 1.91602 25.041 3.31641 25.041C3.5625 25.041 3.79688 25.0117 4.00195 24.9766V23.9746C3.82617 23.9922 3.71484 24.0039 3.52148 24.0039C2.89453 24.0039 2.61914 23.7051 2.61914 23.0195V19.6621H4.00195V18.6543H2.61914V17.0312H1.35938ZM9.59766 23.2949C9.36328 23.8105 8.8418 24.0918 8.08008 24.0918C7.07227 24.0918 6.42188 23.3652 6.38086 22.2109V22.1523H10.8867V21.7188C10.8867 19.7266 9.81445 18.5137 8.03906 18.5137C6.24023 18.5137 5.09766 19.8086 5.09766 21.8301C5.09766 23.8633 6.2168 25.123 8.04492 25.123C9.50391 25.123 10.5352 24.4199 10.8105 23.2949H9.59766ZM8.0332 19.5391C8.96484 19.5391 9.57422 20.2129 9.60352 21.2441H6.38086C6.45117 20.2188 7.10156 19.5391 8.0332 19.5391ZM14.5312 22.7207L15.9258 25.0117H17.373L15.2461 21.7949L17.3496 18.6484H15.9434L14.584 20.9219H14.4844L13.1133 18.6484H11.6426L13.7754 21.8418L11.6602 25.0117H13.043L14.4375 22.7207H14.5312ZM19.1367 17.0312V18.6543H18.123V19.6621H19.1367V23.3242C19.1367 24.5488 19.6934 25.041 21.0938 25.041C21.3398 25.041 21.5742 25.0117 21.7793 24.9766V23.9746C21.6035 23.9922 21.4922 24.0039 21.2988 24.0039C20.6719 24.0039 20.3965 23.7051 20.3965 23.0195V19.6621H21.7793V18.6543H20.3965V17.0312H19.1367Z" fill="#6B778C"/>
</svg>
