<svg width="57" height="9" viewBox="0 0 57 9" fill="none" xmlns="http://www.w3.org/2000/svg">
<path d="M1.7232 5.16406H3.04986L4.49468 8H6.3316L4.69879 4.92236C5.59039 4.57324 6.10601 3.71387 6.10601 2.72021C6.10601 1.18945 5.05865 0.249512 3.35601 0.249512H0.10113V8H1.7232V5.16406ZM1.7232 1.51709H3.13043C3.93609 1.51709 4.44097 1.98975 4.44097 2.7417C4.44097 3.50977 3.96295 3.95557 3.14654 3.95557H1.7232V1.51709ZM12.7896 6.6626H9.2769V4.70215H12.5909V3.45605H9.2769V1.58691H12.7896V0.249512H7.65482V8H12.7896V6.6626ZM13.8819 5.76025C13.8819 7.25342 14.9239 8.19873 16.5137 8.19873C18.1573 8.19873 19.1455 7.26416 19.1455 5.61523V0.249512H17.5235V5.60449C17.5235 6.3833 17.1582 6.79688 16.4922 6.79688C15.8692 6.79688 15.461 6.38867 15.4502 5.76025H13.8819ZM26.0816 6.6626H22.5689V4.70215H25.8828V3.45605H22.5689V1.58691H26.0816V0.249512H20.9468V8H26.0816V6.6626ZM30.998 8.19873C32.8672 8.19873 34.2314 7.06543 34.3657 5.41113H32.7866C32.6309 6.26514 31.9326 6.81299 31.0034 6.81299C29.7788 6.81299 29.0215 5.78174 29.0215 4.12207C29.0215 2.4624 29.7788 1.43115 30.998 1.43115C31.9219 1.43115 32.6255 2.02197 32.7812 2.91895H34.3603C34.2422 1.25391 32.835 0.0507812 30.998 0.0507812C28.7476 0.0507812 27.3618 1.60303 27.3618 4.12207C27.3618 6.64111 28.7529 8.19873 30.998 8.19873ZM39.1157 8V1.58691H41.4414V0.249512H35.1679V1.58691H37.4936V8H39.1157ZM47.9262 6.6626H44.4135V4.70215H47.7275V3.45605H44.4135V1.58691H47.9262V0.249512H42.7915V8H47.9262V6.6626ZM49.5502 0.249512V8H52.601C54.9213 8 56.2373 6.58203 56.2373 4.07373C56.2373 1.64062 54.9052 0.249512 52.601 0.249512H49.5502ZM51.1723 1.58691H52.3432C53.7504 1.58691 54.583 2.5 54.583 4.10059C54.583 5.76025 53.7773 6.6626 52.3432 6.6626H51.1723V1.58691Z" fill="#42526E"/>
</svg>
