<svg width="82" height="9" viewBox="0 0 82 9" fill="none" xmlns="http://www.w3.org/2000/svg">
<path d="M2.57528 5.16406H3.90194L5.34677 8H7.18368L5.55087 4.92236C6.44247 4.57324 6.9581 3.71387 6.9581 2.72021C6.9581 1.18945 5.91073 0.249512 4.2081 0.249512H0.953213V8H2.57528V5.16406ZM2.57528 1.51709H3.98251C4.78817 1.51709 5.29306 1.98975 5.29306 2.7417C5.29306 3.50977 4.81503 3.95557 3.99862 3.95557H2.57528V1.51709ZM13.6417 6.6626H10.129V4.70215H13.4429V3.45605H10.129V1.58691H13.6417V0.249512H8.50691V8H13.6417V6.6626ZM18.6548 8.19873C19.149 8.19873 19.6109 8.12354 20.0191 7.98389L20.6099 8.76807H22.1192L21.0879 7.3877C21.9097 6.71631 22.377 5.57227 22.377 4.12207C22.377 1.6084 20.9322 0.0507812 18.6548 0.0507812C16.3775 0.0507812 14.9219 1.6084 14.9219 4.12207C14.9219 6.65186 16.3614 8.19873 18.6548 8.19873ZM18.6602 6.87744C17.3712 6.87744 16.5386 5.81934 16.5386 4.12207C16.5386 2.43555 17.3712 1.3667 18.6548 1.3667C19.9332 1.3667 20.7603 2.43555 20.7603 4.12207C20.7603 4.99756 20.5401 5.70117 20.1426 6.13086L19.6216 5.44873H18.107L19.1382 6.81836C18.9825 6.86133 18.8267 6.87744 18.6602 6.87744ZM28.1333 8V3.04248H28.23L31.8072 8H33.1499V0.249512H31.5977V5.18555H31.501L27.9346 0.249512H26.5811V8H28.1333ZM38.3403 0.0507812C36.0576 0.0507812 34.6074 1.6084 34.6074 4.12207C34.6074 6.63037 36.0361 8.19873 38.3403 8.19873C40.6284 8.19873 42.0679 6.63037 42.0679 4.12207C42.0679 1.61377 40.6231 0.0507812 38.3403 0.0507812ZM38.3403 1.42578C39.5972 1.42578 40.4082 2.47314 40.4082 4.12207C40.4082 5.76562 39.6026 6.82373 38.3403 6.82373C37.062 6.82373 36.2671 5.76562 36.2671 4.12207C36.2671 2.47314 37.0781 1.42578 38.3403 1.42578ZM46.7588 8V1.58691H49.0845V0.249512H42.811V1.58691H45.1367V8H46.7588ZM52.8374 5.85693C52.8964 7.29102 54.0942 8.19873 55.9419 8.19873C57.8862 8.19873 59.0839 7.24268 59.0839 5.6958C59.0839 4.49805 58.4126 3.82666 56.8549 3.49365L55.9204 3.29492C55.0127 3.09619 54.6421 2.81152 54.6421 2.32275C54.6421 1.71582 55.1792 1.32373 55.9902 1.32373C56.7744 1.32373 57.3437 1.7373 57.4189 2.37109H58.9443C58.896 1.00146 57.6875 0.0507812 55.9795 0.0507812C54.1909 0.0507812 53.0146 1.00684 53.0146 2.45166C53.0146 3.62793 53.7075 4.35303 55.1201 4.65381L56.1298 4.87402C57.0805 5.0835 57.4672 5.37891 57.4672 5.88916C57.4672 6.49072 56.8711 6.91504 56.0278 6.91504C55.1147 6.91504 54.4809 6.50146 54.4057 5.85693H52.8374ZM65.6708 6.6626H62.1581V4.70215H65.4721V3.45605H62.1581V1.58691H65.6708V0.249512H60.5361V8H65.6708V6.6626ZM68.8471 8V3.04248H68.9438L72.5209 8H73.8637V0.249512H72.3115V5.18555H72.2148L68.6484 0.249512H67.2949V8H68.8471ZM79.1669 8V1.58691H81.4926V0.249512H75.2191V1.58691H77.5448V8H79.1669Z" fill="#42526E"/>
</svg>
