<svg width="58" height="9" viewBox="0 0 58 9" fill="none" xmlns="http://www.w3.org/2000/svg">
<path d="M2.00202 5.16406H3.32868L4.7735 8H6.61041L4.9776 4.92236C5.8692 4.57324 6.38483 3.71387 6.38483 2.72021C6.38483 1.18945 5.33747 0.249512 3.63483 0.249512H0.379946V8H2.00202V5.16406ZM2.00202 1.51709H3.40924C4.21491 1.51709 4.71979 1.98975 4.71979 2.7417C4.71979 3.50977 4.24176 3.95557 3.42536 3.95557H2.00202V1.51709ZM13.0684 6.6626H9.55571V4.70215H12.8697V3.45605H9.55571V1.58691H13.0684V0.249512H7.93364V8H13.0684V6.6626ZM18.0816 8.19873C18.5757 8.19873 19.0376 8.12354 19.4458 7.98389L20.0367 8.76807H21.5459L20.5147 7.3877C21.3365 6.71631 21.8037 5.57227 21.8037 4.12207C21.8037 1.6084 20.3589 0.0507812 18.0816 0.0507812C15.8042 0.0507812 14.3487 1.6084 14.3487 4.12207C14.3487 6.65186 15.7881 8.19873 18.0816 8.19873ZM18.0869 6.87744C16.7979 6.87744 15.9654 5.81934 15.9654 4.12207C15.9654 2.43555 16.7979 1.3667 18.0816 1.3667C19.3599 1.3667 20.187 2.43555 20.187 4.12207C20.187 4.99756 19.9668 5.70117 19.5694 6.13086L19.0484 5.44873H17.5337L18.565 6.81836C18.4092 6.86133 18.2534 6.87744 18.0869 6.87744ZM28.4106 5.85693C28.4697 7.29102 29.6675 8.19873 31.5151 8.19873C33.4595 8.19873 34.6572 7.24268 34.6572 5.6958C34.6572 4.49805 33.9858 3.82666 32.4282 3.49365L31.4936 3.29492C30.5859 3.09619 30.2153 2.81152 30.2153 2.32275C30.2153 1.71582 30.7524 1.32373 31.5635 1.32373C32.3476 1.32373 32.917 1.7373 32.9922 2.37109H34.5176C34.4692 1.00146 33.2607 0.0507812 31.5527 0.0507812C29.7641 0.0507812 28.5879 1.00684 28.5879 2.45166C28.5879 3.62793 29.2807 4.35303 30.6933 4.65381L31.7031 4.87402C32.6538 5.0835 33.0405 5.37891 33.0405 5.88916C33.0405 6.49072 32.4443 6.91504 31.6011 6.91504C30.688 6.91504 30.0542 6.50146 29.979 5.85693H28.4106ZM41.2441 6.6626H37.7314V4.70215H41.0454V3.45605H37.7314V1.58691H41.2441V0.249512H36.1093V8H41.2441V6.6626ZM44.4204 8V3.04248H44.517L48.0942 8H49.437V0.249512H47.8847V5.18555H47.788L44.2216 0.249512H42.8681V8H44.4204ZM54.7402 8V1.58691H57.0659V0.249512H50.7924V1.58691H53.1181V8H54.7402Z" fill="#42526E"/>
</svg>
