<svg width="83" height="9" viewBox="0 0 83 9" fill="none" xmlns="http://www.w3.org/2000/svg">
<path d="M1.90927 5.16406H3.23593L4.68075 8H6.51767L4.88485 4.92236C5.77645 4.57324 6.29208 3.71387 6.29208 2.72021C6.29208 1.18945 5.24472 0.249512 3.54208 0.249512H0.287197V8H1.90927V5.16406ZM1.90927 1.51709H3.31649C4.12216 1.51709 4.62704 1.98975 4.62704 2.7417C4.62704 3.50977 4.14901 3.95557 3.33261 3.95557H1.90927V1.51709ZM12.9757 6.6626H9.46296V4.70215H12.7769V3.45605H9.46296V1.58691H12.9757V0.249512H7.84089V8H12.9757V6.6626ZM17.9888 8.19873C18.483 8.19873 18.9449 8.12354 19.3531 7.98389L19.9439 8.76807H21.4532L20.4219 7.3877C21.2437 6.71631 21.711 5.57227 21.711 4.12207C21.711 1.6084 20.2662 0.0507812 17.9888 0.0507812C15.7115 0.0507812 14.2559 1.6084 14.2559 4.12207C14.2559 6.65186 15.6954 8.19873 17.9888 8.19873ZM17.9942 6.87744C16.7051 6.87744 15.8726 5.81934 15.8726 4.12207C15.8726 2.43555 16.7051 1.3667 17.9888 1.3667C19.2671 1.3667 20.0943 2.43555 20.0943 4.12207C20.0943 4.99756 19.8741 5.70117 19.4766 6.13086L18.9556 5.44873H17.441L18.4722 6.81836C18.3165 6.86133 18.1607 6.87744 17.9942 6.87744ZM27.5371 5.16406H28.8638L30.3086 8H32.1455L30.5127 4.92236C31.4043 4.57324 31.9199 3.71387 31.9199 2.72021C31.9199 1.18945 30.8726 0.249512 29.1699 0.249512H25.9151V8H27.5371V5.16406ZM27.5371 1.51709H28.9444C29.75 1.51709 30.2549 1.98975 30.2549 2.7417C30.2549 3.50977 29.7769 3.95557 28.9605 3.95557H27.5371V1.51709ZM38.6035 6.6626H35.0908V4.70215H38.4048V3.45605H35.0908V1.58691H38.6035V0.249512H33.4688V8H38.6035V6.6626ZM39.6958 5.76025C39.6958 7.25342 40.7378 8.19873 42.3276 8.19873C43.9712 8.19873 44.9595 7.26416 44.9595 5.61523V0.249512H43.3374V5.60449C43.3374 6.3833 42.9722 6.79688 42.3061 6.79688C41.6831 6.79688 41.2749 6.38867 41.2642 5.76025H39.6958ZM51.8955 6.6626H48.3828V4.70215H51.6968V3.45605H48.3828V1.58691H51.8955V0.249512H46.7607V8H51.8955V6.6626ZM56.812 8.19873C58.6811 8.19873 60.0454 7.06543 60.1796 5.41113H58.6005C58.4448 6.26514 57.7465 6.81299 56.8173 6.81299C55.5927 6.81299 54.8354 5.78174 54.8354 4.12207C54.8354 2.4624 55.5927 1.43115 56.812 1.43115C57.7358 1.43115 58.4394 2.02197 58.5952 2.91895H60.1743C60.0561 1.25391 58.6489 0.0507812 56.812 0.0507812C54.5615 0.0507812 53.1757 1.60303 53.1757 4.12207C53.1757 6.64111 54.5669 8.19873 56.812 8.19873ZM64.9296 8V1.58691H67.2553V0.249512H60.9819V1.58691H63.3076V8H64.9296ZM73.7402 6.6626H70.2275V4.70215H73.5414V3.45605H70.2275V1.58691H73.7402V0.249512H68.6054V8H73.7402V6.6626ZM75.3642 0.249512V8H78.4149C80.7353 8 82.0512 6.58203 82.0512 4.07373C82.0512 1.64062 80.7191 0.249512 78.4149 0.249512H75.3642ZM76.9862 1.58691H78.1571C79.5644 1.58691 80.3969 2.5 80.3969 4.10059C80.3969 5.76025 79.5912 6.6626 78.1571 6.6626H76.9862V1.58691Z" fill="#42526E"/>
</svg>
