<svg width="24" height="24" viewBox="0 0 24 24" fill="none" xmlns="http://www.w3.org/2000/svg">
<rect width="24" height="24" fill="white" fill-opacity="0.01"/>
<path d="M14.8228 15.8831C13.7122 16.725 12.3234 17.114 10.9371 16.9714C9.55074 16.8287 8.27024 16.1651 7.35438 15.1146C6.43851 14.0642 5.95559 12.7052 6.00321 11.3123C6.05084 9.91947 6.62545 8.59663 7.61092 7.61116C8.59639 6.62569 9.91922 6.05108 11.3121 6.00346C12.7049 5.95584 14.0639 6.43876 15.1144 7.35462C16.1649 8.27048 16.8285 9.55098 16.9711 10.9373C17.1138 12.3237 16.7248 13.7125 15.8828 14.8231L18.5298 17.4701C18.8228 17.7631 19.0598 18.0601 18.5298 18.5301C17.9998 19.0001 17.7628 18.8231 17.4698 18.5301L14.8228 15.8831ZM11.4998 15.5001C12.5607 15.5001 13.5781 15.0786 14.3282 14.3285C15.0784 13.5783 15.4998 12.5609 15.4998 11.5001C15.4998 10.4392 15.0784 9.42177 14.3282 8.67162C13.5781 7.92148 12.5607 7.50005 11.4998 7.50005C10.4389 7.50005 9.42153 7.92148 8.67138 8.67162C7.92123 9.42177 7.49981 10.4392 7.49981 11.5001C7.49981 12.5609 7.92123 13.5783 8.67138 14.3285C9.42153 15.0786 10.4389 15.5001 11.4998 15.5001Z" fill="#42526E"/>
</svg>
