<svg width="198" height="236" viewBox="0 0 198 236" fill="none" xmlns="http://www.w3.org/2000/svg">
<g clip-path="url(#clip0_1_944)">
<rect width="197.769" height="236" fill="white" fill-opacity="0.01"/>
<path d="M96.9865 43.8168C96.5896 43.8294 96.3025 43.1918 96.2223 42.7696C96.1927 42.6176 96.104 41.9842 96.5136 41.4395C96.8852 40.9455 97.2441 41.089 97.9028 40.5359C98.5446 39.9912 98.7009 39.4296 98.8824 39.4802C99.0387 39.5225 99.0556 39.9743 98.9627 40.3543C98.7895 41.0637 98.3251 41.0975 98.0295 41.8364C97.793 42.4276 98.0042 42.6176 97.679 43.1792C97.565 43.3692 97.3074 43.8041 96.9865 43.8168Z" fill="#A17F68"/>
<path d="M96.9158 41.2752C96.9158 41.2752 99.3015 40.9712 99.7322 40.5109C100.163 40.0464 100.218 39.5904 100.475 39.6411C100.733 39.6917 100.442 40.5954 100.543 40.7263C100.648 40.8572 100.851 40.798 100.809 41.0852C100.767 41.3723 100.771 41.7143 100.594 42.0141C100.416 42.3139 99.2762 43.3907 98.723 43.5596C98.1741 43.7285 97.0509 44.138 96.4851 43.9227C95.915 43.7073 96.616 41.6932 96.616 41.6932L96.9158 41.2752Z" fill="#A17F68"/>
<path d="M84.9686 39.2314C85.3613 39.8437 85.7497 40.456 86.1467 41.0725C87.1812 42.6812 88.2115 44.2773 89.246 45.8608C91.5641 44.4505 93.8865 43.0401 96.2047 41.6298C96.6311 42.6728 97.0576 43.7115 97.4841 44.7545C96.3609 45.6243 94.6972 46.8531 92.5818 48.2169C90.4705 49.5766 89.4782 50.5224 88.1946 50.2564C87.4936 50.1128 87.0587 49.7075 86.2818 48.9728C85.4922 48.2254 84.3479 46.9417 83.4062 44.9276C83.9298 43.0275 84.4492 41.1273 84.9686 39.2314Z" fill="url(#paint0_linear_1_944)"/>
<path d="M86.6337 63.1685H71.3145L73.4257 50.4292H84.1002L86.6337 63.1685Z" fill="#172B4D"/>
<path d="M81.251 37.9095C81.1666 38.0277 80.3474 39.1594 78.8695 39.1931C77.4761 39.2227 76.6274 38.2557 76.5176 38.1291C76.6274 38.0488 76.7836 37.9179 76.9272 37.7237C76.9272 37.7237 77.0496 37.559 77.1425 37.3521C77.2945 37.0101 77.341 36.2881 77.1552 35.4013C78.4135 35.3211 79.6718 35.2409 80.9301 35.1606C80.8879 35.5069 80.833 35.9883 80.7739 36.5963C80.7401 36.9299 80.719 37.1959 80.8625 37.4788C80.9723 37.6941 81.1328 37.8293 81.251 37.9095Z" fill="url(#paint1_linear_1_944)"/>
<path d="M78.916 94.2799C78.9751 94.0603 79.0385 93.8365 79.0976 93.6169C79.8956 93.2791 80.8457 92.802 81.8464 92.1137C82.6994 91.531 83.3919 90.9272 83.9408 90.3867C84.7388 90.4458 85.5369 90.5007 86.335 90.5598C86.4532 91.0201 86.563 91.5437 86.6432 92.1179C86.7234 92.6838 86.7572 93.2031 86.7699 93.6718C86.2801 93.676 85.7903 93.6803 85.3004 93.6845C85.1653 93.5916 85.0302 93.4987 84.8951 93.4058C84.798 93.5156 84.6966 93.6296 84.5995 93.7394C83.5777 94.0054 82.3362 94.2334 80.909 94.2968C80.1912 94.3348 79.5241 94.3221 78.916 94.2799Z" fill="#091E42"/>
<path d="M68.8535 93.064C68.9422 92.8445 69.0266 92.6249 69.1153 92.4053C69.7614 92.1604 70.5299 91.81 71.3364 91.299C72.4638 90.5897 73.2998 89.8085 73.8783 89.1709C74.6426 89.2849 75.4068 89.4031 76.1711 89.5171C76.3231 89.8929 76.4751 90.3616 76.5765 90.9021C76.7158 91.6242 76.7285 92.2576 76.7031 92.7516C76.2218 92.798 75.7446 92.8487 75.2633 92.8952C75.1197 92.7347 74.9761 92.5785 74.8326 92.418C74.6595 92.5658 74.4863 92.7094 74.309 92.8571C73.853 92.9205 73.4012 92.9796 72.9451 93.0429C72.4046 93.0429 71.8642 93.0387 71.3195 93.0429C70.4961 93.0472 69.6727 93.0556 68.8535 93.064Z" fill="#091E42"/>
<path d="M76.6775 37.7446C75.9934 37.8586 75.0265 38.1247 74.1229 38.8087C73.1517 39.5434 72.7041 40.4301 72.4677 40.8566C71.7921 42.0727 70.6604 43.7828 68.6716 45.987C67.5147 44.9904 66.3577 43.9939 65.2007 43.0016C64.3436 44.4077 63.4822 45.8138 62.625 47.2241C63.7566 48.2038 64.8376 48.7274 65.5512 49.0103C66.5393 49.403 67.464 49.7661 68.6083 49.5972C69.0136 49.5381 69.7526 49.4156 71.3191 48.1573C72.2143 47.4353 73.3882 46.405 74.6507 45.0116C75.3221 42.5921 76.0019 40.1683 76.6775 37.7446Z" fill="url(#paint2_linear_1_944)"/>
<path d="M74.7725 49.6269C74.6585 50.3531 74.4938 51.451 74.3291 52.7938C73.4551 59.9931 73.6958 65.4275 73.776 67.7921C73.9322 72.2806 73.9618 79.0831 73.4551 89.4493C73.7802 89.462 74.118 89.4704 74.4558 89.4704C76.1533 89.4704 77.7156 89.3015 79.1175 89.0355C79.1977 81.3759 79.2779 73.7163 79.3581 66.0566C80.3927 74.2061 81.4272 82.3597 82.4617 90.5092C83.1415 90.7203 84.1042 90.9399 85.2781 90.9568C86.5533 90.9736 87.5962 90.7456 88.3056 90.5303C88.0185 86.1684 87.6258 81.663 87.1149 77.0267C86.8235 74.3919 86.5026 71.8077 86.1564 69.2784C86.093 67.4796 85.9875 66.006 85.9072 65.001C85.6581 61.9693 85.2739 57.4934 83.8467 52.1097C83.5469 50.9781 83.2682 50.066 83.095 49.5171C80.3504 49.572 77.5213 49.5678 74.7725 49.6269Z" fill="#0049B0"/>
<path d="M80.7527 37.0649C80.6471 37.1789 79.9884 37.8672 78.9286 37.863C77.9574 37.8588 77.3367 37.2761 77.2142 37.1536C77.1213 37.3436 77.0284 37.5336 76.9355 37.7194C77.3409 38.4879 78.1263 38.9777 78.9835 38.9988C79.8829 39.02 80.7274 38.5259 81.1496 37.7194C81.0145 37.5041 80.8836 37.2845 80.7527 37.0649Z" fill="#2684FF"/>
<path d="M75.4238 38.0657C76.0361 37.8165 76.5808 37.7447 76.9312 37.7236C77.003 37.8545 77.5224 38.775 78.5907 38.9693C79.5576 39.1424 80.5753 38.6484 81.12 37.7236C81.424 37.7616 82.2263 38.1121 82.8554 38.2008C83.1172 38.2388 83.379 38.2852 83.6281 38.3781C83.6281 38.3781 84.46 38.6061 85.1018 39.4169C85.7985 40.3036 85.6803 42.0813 84.5655 43.6394C84.0208 45.3157 83.0581 46.1475 82.5134 47.8239C82.7372 48.4108 82.961 48.9977 83.1848 49.5847C81.6182 49.6058 80.039 49.6227 78.4471 49.6269C77.2141 49.6311 75.9896 49.6311 74.7735 49.6269C74.4822 47.731 74.4146 47.4776 73.9966 46.8105C73.9966 46.8105 73.3717 45.7548 73.0803 44.5472C73.0381 44.3699 73.0128 44.1714 73.0085 43.9265C72.9832 42.5795 73.6335 42.4571 73.7644 40.4809C73.8024 39.8856 73.777 39.4084 74.1233 38.9313C74.4653 38.4583 74.9889 38.243 75.4238 38.0657Z" fill="#2684FF"/>
<path d="M69.0345 46.1139H64.1575C63.7563 46.1139 63.4016 45.8648 63.2665 45.4847L60.9146 38.9356C60.8048 38.6274 61.0328 38.3022 61.3622 38.3022H66.2392C66.6403 38.3022 66.995 38.5514 67.1301 38.9314L69.4821 45.4805C69.5918 45.7887 69.3638 46.1139 69.0345 46.1139Z" fill="#091E42"/>
<path d="M63.5994 43.3943C63.5234 43.8799 63.0631 44.4077 62.7 44.3359C62.4931 44.2979 62.32 44.0657 62.2608 43.8714C62.2017 43.673 62.2862 43.6096 62.206 43.4238C62.1088 43.2085 61.9526 43.2254 61.885 43.0143C61.847 42.9045 61.885 42.8834 61.885 42.6173C61.885 42.2669 61.8175 42.25 61.8513 42.1233C61.9357 41.8235 62.396 41.5955 62.7 41.6926C62.8055 41.7264 62.7887 41.7686 62.966 41.8531C63.2531 41.9924 63.3756 41.9248 63.4811 42.0346C63.5783 42.136 63.5487 42.2669 63.5445 42.5836C63.5403 43.1494 63.6374 43.1451 63.5994 43.3943Z" fill="#A17F68"/>
<path d="M85.0215 50.4292C85.2073 50.7923 85.3804 51.1639 85.5535 51.5524C87.3481 55.6313 87.7112 59.7018 87.5043 63.1685C85.6633 63.1685 83.8265 63.1685 81.9855 63.1685L81.1621 50.4292C82.4458 50.4292 83.7336 50.4292 85.0215 50.4292Z" fill="#172B4D"/>
<path d="M80.3549 35.6419C80.6547 35.4814 80.8953 35.3294 81.0558 35.2238C81.288 35.0169 81.8961 34.4216 82.0819 33.4462C82.179 32.9226 82.1199 32.4792 82.0565 32.1963L81.9805 31.8289C81.7441 30.672 80.9333 29.7135 79.827 29.2912L79.7468 29.2617C79.4259 29.1392 79.0923 29.0674 78.7503 29.0421C78.6405 29.0336 78.2056 29.0083 77.7327 29.1223C77.1204 29.2701 76.0057 29.781 75.6003 30.7902C75.499 31.0436 75.4187 31.6263 75.2583 32.7917C75.2456 32.8846 75.2161 33.1084 75.1401 33.4039C75.0556 33.7375 74.9585 34.0035 74.8867 34.1767C75.0598 34.2527 75.233 34.3287 75.4061 34.4047C75.4483 35.0634 75.6088 35.5616 75.7439 35.8868C75.8706 36.195 75.9466 36.3681 76.1239 36.5075C76.3308 36.6679 76.6264 36.7397 77.6271 36.5455C78.3829 36.4061 79.2655 36.2288 80.3549 35.6419Z" fill="#A17F68"/>
<path d="M74.8652 31.4574C75.4564 31.5419 76.0855 31.6095 76.7485 31.6559C77.6352 31.7192 78.467 31.7361 79.2313 31.7192C79.2609 33.8896 79.2862 36.0558 79.3158 38.2261C79.814 37.9179 81.9675 36.5076 82.4826 33.8727C82.6051 33.252 82.9893 31.297 81.7817 29.7938C81.1568 29.0168 80.384 28.7044 80.0969 28.5904C79.7084 28.4384 77.7957 27.7543 76.2587 28.9239C75.089 29.8149 74.899 31.1661 74.8652 31.4574Z" fill="#091E42"/>
<path d="M74.9332 33.1378C75.1898 33.1378 75.3977 32.8485 75.3977 32.4917C75.3977 32.1349 75.1898 31.8457 74.9332 31.8457C74.6767 31.8457 74.4688 32.1349 74.4688 32.4917C74.4688 32.8485 74.6767 33.1378 74.9332 33.1378Z" stroke="#DFE1E5" stroke-width="0.201498" stroke-miterlimit="10"/>
<path d="M76.5836 33.1378C76.8401 33.1378 77.0481 32.8485 77.0481 32.4917C77.0481 32.1349 76.8401 31.8457 76.5836 31.8457C76.3271 31.8457 76.1191 32.1349 76.1191 32.4917C76.1191 32.8485 76.3271 33.1378 76.5836 33.1378Z" stroke="#DFE1E5" stroke-width="0.201498" stroke-miterlimit="10"/>
<path d="M75.3984 32.4922H76.1205" stroke="#DFE1E5" stroke-width="0.201498" stroke-miterlimit="10"/>
<path d="M77.0527 32.4922H79.6749" stroke="#DFE1E5" stroke-width="0.201456" stroke-miterlimit="10" stroke-linecap="round"/>
<path d="M72.5563 40.5778C72.0876 41.4012 71.4838 42.3682 70.6309 43.6349C71.564 45.8982 72.493 48.1657 73.4262 50.4289C73.6162 50.4669 73.8146 50.5049 74.0215 50.5345C74.41 50.5936 74.7774 50.6231 75.1152 50.64C75.2798 49.9518 75.4867 48.9299 75.5796 47.6758C75.7274 45.6575 75.4614 44.585 75.4403 43.162C75.4192 41.8615 75.6007 40.0247 76.517 37.7656C76.3608 37.7952 76.2003 37.8332 76.0314 37.8754C75.8456 37.9261 75.643 37.9852 75.4234 38.0612C75.0138 38.1879 74.6971 38.3441 74.5282 38.4328C74.5282 38.4328 74.4733 38.4623 74.4016 38.5003C73.8357 38.8297 72.6281 40.4807 72.5563 40.5778Z" fill="url(#paint3_linear_1_944)"/>
<path d="M87.1312 43.1622C86.5908 44.4923 85.0707 49.5804 85.02 50.4292C84.243 50.4292 81.9376 50.4292 81.1606 50.4292C80.5568 48.0519 80.6792 46.2278 80.9242 44.9652C81.1859 43.6267 81.6166 42.7484 81.6504 41.1228C81.68 39.6955 81.3844 38.5175 81.1184 37.7236C81.4309 37.7574 81.756 37.8081 82.0938 37.8545C82.5203 37.9136 82.9721 37.9854 83.1916 38.0614C83.9601 38.3612 84.5048 38.7075 84.6231 38.7835C85.1002 39.1128 86.8314 42.2502 87.1312 43.1622Z" fill="url(#paint4_linear_1_944)"/>
<path d="M71.9277 63.1684C72.7258 63.1557 73.5281 63.1431 74.3261 63.1262C74.5879 58.9628 75.1157 50.6402 75.1157 50.6402L74.0221 50.5347C74.0221 50.5347 72.6413 58.8614 71.9277 63.1684Z" fill="#172B4D"/>
<path opacity="0.38" d="M97.6794 174.909C120.188 174.909 138.435 156.662 138.435 134.153C138.435 111.644 120.188 93.3975 97.6794 93.3975C75.1707 93.3975 56.9238 111.644 56.9238 134.153C56.9238 156.662 75.1707 174.909 97.6794 174.909Z" fill="url(#paint5_radial_1_944)"/>
<path d="M65.9218 150.22H32.9609V188.577H65.9218V150.22Z" fill="#0052CC"/>
<path opacity="0.7" d="M54.3561 177.071C50.6065 170.205 52.6122 167.11 48.3812 160.861C45.417 156.486 40.692 152.487 35.7939 150.224H32.9648V188.581H65.875C61.737 186.149 57.392 182.628 54.3561 177.071Z" fill="url(#paint6_linear_1_944)"/>
<path d="M98.8827 150.22H65.9219V188.577H98.8827V150.22Z" fill="#0065FF"/>
<path d="M131.848 150.22H98.8867V188.577H131.848V150.22Z" fill="#00B8D9"/>
<path opacity="0.7" d="M131.848 186.001C126.523 183.679 118.454 179.972 113.662 171.202C109.912 164.336 111.918 161.241 107.687 154.991C106.555 153.319 105.166 151.706 103.608 150.224H98.8828V188.581H131.844V186.001H131.848Z" fill="url(#paint7_linear_1_944)"/>
<path d="M164.809 150.22H131.848V188.577H164.809V150.22Z" fill="url(#paint8_linear_1_944)"/>
<path d="M144.655 164.843C144.663 167.684 144.773 170.522 144.921 173.359C146.998 173.326 150.613 173.313 154.05 173.313C154.071 170.357 154.139 167.397 154.143 164.441C154.143 164.357 159.632 164.323 164.805 164.332V150.216H131.844V164.733C137.519 164.716 144.655 164.745 144.655 164.843Z" fill="url(#paint9_linear_1_944)"/>
<path d="M98.8827 92.895H65.9219V131.252H98.8827V92.895Z" fill="#C1C7D0"/>
<path d="M98.887 130.775C93.7228 128.385 87.0851 124.589 82.9175 116.963C79.1679 110.098 81.1736 107.002 76.9426 100.753C74.9623 97.8311 72.1965 95.0781 69.1183 92.895H65.9219V131.252H98.8827V130.775H98.887Z" fill="url(#paint10_linear_1_944)"/>
<path d="M131.848 92.895H98.8867V131.252H131.848V92.895Z" fill="url(#paint11_linear_1_944)"/>
<path d="M50.8524 143.62H38.168V150.22H50.8524V143.62Z" fill="#0052CC"/>
<path d="M72.2684 143.62H59.584V150.22H72.2684V143.62Z" fill="#0052CC"/>
<path d="M93.6805 143.62H80.9961V150.22H93.6805V143.62Z" fill="#0052CC"/>
<path d="M32.9609 188.577H0V226.934H32.9609V188.577Z" fill="#0052CC"/>
<path opacity="0.7" d="M20.9901 215.428C17.2405 208.562 19.2462 205.467 15.0152 199.218C12.051 194.843 7.32605 190.844 2.42794 188.581H0V226.938H32.5091C28.3752 224.506 24.026 220.985 20.9901 215.428Z" fill="url(#paint12_linear_1_944)"/>
<path d="M65.9218 188.577H32.9609V226.934H65.9218V188.577Z" fill="#0065FF"/>
<path d="M17.8914 181.977H5.20703V188.577H17.8914V181.977Z" fill="#0052CC"/>
<path d="M39.3035 181.977H26.6191V188.577H39.3035V181.977Z" fill="#0052CC"/>
<path d="M60.7196 181.977H48.0352V188.577H60.7196V181.977Z" fill="#0052CC"/>
<path d="M116.778 143.62H104.094V150.22H116.778V143.62Z" fill="#00C7E5"/>
<path d="M138.19 143.62H125.506V150.22H138.19V143.62Z" fill="#00C7E5"/>
<path d="M159.602 143.62H146.918V150.22H159.602V143.62Z" fill="#00C7E5"/>
<path d="M98.8827 188.577H65.9219V226.934H98.8827V188.577Z" fill="#0052CC"/>
<path opacity="0.7" d="M86.9792 215.428C83.2296 208.562 85.2353 205.467 81.0043 199.218C78.0401 194.843 73.3152 190.844 68.4171 188.581H65.9258V226.938H98.4982C94.3643 224.506 90.0152 220.985 86.9792 215.428Z" fill="url(#paint13_linear_1_944)"/>
<path d="M131.848 188.577H98.8867V226.934H131.848V188.577Z" fill="#0065FF"/>
<path d="M164.809 188.577H131.848V226.934H164.809V188.577Z" fill="#0052CC"/>
<path opacity="0.7" d="M153.07 215.428C149.32 208.562 151.326 205.467 147.095 199.218C144.131 194.843 139.406 190.844 134.508 188.581H131.852V226.938H164.593C160.455 224.506 156.106 220.985 153.07 215.428Z" fill="url(#paint14_linear_1_944)"/>
<path d="M197.769 188.577H164.809V226.934H197.769V188.577Z" fill="url(#paint15_linear_1_944)"/>
<path d="M83.8133 181.977H71.1289V188.577H83.8133V181.977Z" fill="#0052CC"/>
<path d="M105.229 181.977H92.5449V188.577H105.229V181.977Z" fill="#0052CC"/>
<path d="M126.641 181.977H113.957V188.577H126.641V181.977Z" fill="#0052CC"/>
<path d="M149.739 181.977H137.055V188.577H149.739V181.977Z" fill="#0052CC"/>
<path d="M171.151 181.977H158.467V188.577H171.151V181.977Z" fill="#0052CC"/>
<path d="M192.567 181.977H179.883V188.577H192.567V181.977Z" fill="#0052CC"/>
<path d="M105.229 86.2954H92.5449V92.8952H105.229V86.2954Z" fill="#C1C7D0"/>
<path d="M148.024 138.819L156.752 133.414C156.955 133.288 156.849 132.975 156.613 132.996L147.209 133.942L146.99 131.768C146.973 131.603 146.787 131.51 146.648 131.599L137.92 137.004C137.717 137.13 137.823 137.443 138.059 137.422L147.463 136.476L147.682 138.65C147.699 138.815 147.881 138.904 148.024 138.819Z" fill="url(#paint16_linear_1_944)"/>
<path d="M141.206 128.727L142.726 123.838C142.755 123.736 142.633 123.665 142.557 123.741L139.331 127.161L138.537 126.409C138.482 126.359 138.398 126.384 138.372 126.452L136.852 131.341C136.823 131.443 136.945 131.514 137.021 131.438L140.247 128.018L141.041 128.77C141.096 128.82 141.184 128.799 141.206 128.727Z" fill="url(#paint17_linear_1_944)"/>
<path d="M54.0276 132.654L43.7838 133.304C43.5431 133.321 43.4924 133.646 43.712 133.739L52.4484 137.337L51.6165 139.355C51.5532 139.511 51.6714 139.676 51.8403 139.668L62.0841 139.017C62.3248 139.001 62.3755 138.675 62.1559 138.583L53.4195 134.985L54.2514 132.967C54.3105 132.81 54.1923 132.646 54.0276 132.654Z" fill="url(#paint18_linear_1_944)"/>
<path d="M98.8867 49.5806V0" stroke="url(#paint19_linear_1_944)" stroke-width="2.04956" stroke-miterlimit="10"/>
<path d="M98.887 70.2075L65.9219 92.895V130.29" stroke="#DFE1E5" stroke-width="2.04956" stroke-miterlimit="10" stroke-linecap="round" stroke-linejoin="round"/>
<path d="M95.2559 68.7972C95.2559 71.0393 97.2911 72.8085 99.6135 72.3567C101.028 72.0823 102.168 70.9422 102.443 69.5277C102.844 67.4713 101.505 65.643 99.6388 65.2503C99.1997 65.1574 98.883 64.7731 98.883 64.3255V61.2896" stroke="#0065FF" stroke-width="1.69787" stroke-miterlimit="10" stroke-linecap="round" stroke-linejoin="round"/>
<path d="M98.8873 54.9685C100.375 54.9685 101.581 53.7624 101.581 52.2745C101.581 50.7867 100.375 49.5806 98.8873 49.5806C97.3995 49.5806 96.1934 50.7867 96.1934 52.2745C96.1934 53.7624 97.3995 54.9685 98.8873 54.9685Z" stroke="#0065FF" stroke-width="1.69787" stroke-miterlimit="10" stroke-linecap="round" stroke-linejoin="round"/>
<path d="M99.6011 61.6906H98.1739C97.266 61.6906 96.5018 61.0024 96.4089 60.0987L95.9317 55.5047C95.8219 54.4575 96.6453 53.5454 97.6967 53.5454H100.082C101.134 53.5454 101.957 54.4575 101.847 55.5047L101.37 60.0987C101.269 61.0024 100.509 61.6906 99.6011 61.6906Z" fill="#0065FF"/>
<path d="M83.8133 86.2954H71.1289V92.8952H83.8133V86.2954Z" fill="#C1C7D0"/>
<path d="M131.848 130.29V92.895L98.8867 70.2075" stroke="#DFE1E5" stroke-width="2.04956" stroke-miterlimit="10" stroke-linecap="round" stroke-linejoin="round"/>
<path d="M126.641 86.2954H113.957V92.8952H126.641V86.2954Z" fill="#C1C7D0"/>
<path d="M137.511 162.503V158.694H133.326V156.026H143.439" stroke="#CFD4DB" stroke-width="0.899647" stroke-miterlimit="10" stroke-linecap="round" stroke-linejoin="round"/>
<path d="M142.569 157.419H134.994C134.534 157.419 134.162 157.048 134.162 156.587V155.692C134.162 155.232 134.534 154.86 134.994 154.86H142.569C143.029 154.86 143.401 155.232 143.401 155.692V156.587C143.401 157.048 143.029 157.419 142.569 157.419Z" fill="#344563"/>
<path d="M137.343 164.585C137.744 164.69 138.242 164.598 138.605 164.327C139.889 163.373 138.728 159.657 138.326 159.704C138.263 159.712 137.44 159.59 137.372 159.598C137.3 159.607 136.477 160.063 136.422 160.113C136.11 160.4 136.139 160.992 136.114 161.515C136.093 162.009 136.203 162.495 136.439 162.93L137.343 164.585Z" fill="#72594B"/>
<path d="M162.098 179.275C162.153 179.448 162.229 179.714 162.31 180.039C162.546 180.981 162.694 181.948 162.82 184.629C162.926 186.884 162.82 186.204 162.901 187.344C162.985 188.56 163.108 189.379 162.66 190.283C162.491 190.621 162.293 190.87 162.153 191.026L154.35 198.314C153.679 197.862 153.007 197.415 152.336 196.963C154.853 194.214 157.365 191.469 159.882 188.725L158.619 179.249L160.435 178.768L162.098 179.275Z" fill="#FFAB00"/>
<path d="M159.587 191.702C159.52 191.419 159.431 191.098 159.304 190.76C159.157 190.359 158.988 190.013 158.827 189.721C158.633 189.78 158.316 189.873 157.919 189.949C157.577 190.017 157.316 190.042 157.176 190.063C156.374 190.177 154.845 190.363 150.72 190.675C150.522 190.92 150.243 191.292 149.943 191.765C148.866 193.467 148.474 195.025 148.309 195.696C145.514 207.198 145.311 207.587 145.311 207.587C144.923 209.799 144.547 212.037 144.184 214.313C143.47 218.806 142.499 227.318 141.967 231.621C142.072 231.929 142.258 232.191 142.49 232.394C142.49 232.394 142.858 232.706 143.314 232.77C144.374 232.917 146.223 227.339 146.223 227.339C147.747 222.745 148.165 216.686 148.174 216.053C148.191 214.858 148.081 213.865 147.975 213.177C149.183 210.889 150.391 208.583 151.594 206.269C152.532 204.466 153.46 202.672 154.385 200.877C154.36 205.188 154.364 209.546 154.398 213.95C154.44 219.325 154.525 224.624 154.651 229.856C154.757 229.945 154.926 230.063 155.162 230.126C155.259 230.152 155.546 230.215 156.087 230.029C157.028 229.704 157.341 229.273 157.341 229.273C157.767 227.044 158.316 223.636 158.587 219.439C158.886 214.769 158.451 215.103 158.713 211.328C159.11 205.594 160.63 197.436 160.229 194.784C160.17 194.345 159.807 192.664 159.587 191.702Z" fill="#72594B"/>
<path d="M154.95 168.44C154.642 167.967 154.245 167.249 154.503 166.89C154.727 166.578 155.271 166.797 156.589 166.844C158.485 166.916 158.692 166.591 159.654 166.899C159.946 166.992 160.913 167.3 161.563 168.22C162.475 169.517 162.057 171.138 161.922 171.632C161.402 173.553 159.87 174.529 159.452 174.778C159.11 174.998 158.763 175.217 158.421 175.437C157.45 173.765 156.479 172.092 155.508 170.416L154.95 168.44Z" fill="#172B4D"/>
<path d="M158.291 177.197C156.978 177.197 155.664 177.197 154.355 177.197C154.571 176.695 154.828 175.935 154.917 174.985C155.002 174.06 154.896 173.287 154.782 172.76C155.584 172.722 156.382 172.684 157.185 172.646C157.214 172.785 157.261 172.992 157.328 173.237C157.434 173.617 157.489 173.807 157.59 173.904C157.864 174.161 158.384 174.009 158.54 173.959C158.456 175.04 158.371 176.121 158.291 177.197Z" fill="#543E36"/>
<path d="M159.148 211.324C159.152 211.248 159.157 211.18 159.161 211.1C159.317 208.816 159.655 206.156 159.98 203.58C160.466 199.737 160.926 196.11 160.673 194.459C160.605 193.999 160.229 192.285 160.014 191.351C159.938 191.014 159.837 190.68 159.714 190.355C159.575 189.979 159.406 189.608 159.212 189.257L159.038 188.94L158.692 189.05C158.409 189.139 158.122 189.211 157.831 189.27C157.586 189.316 157.379 189.342 157.24 189.363L157.109 189.38C156.353 189.489 154.867 189.671 150.682 189.988L150.492 190L150.374 190.152C150.087 190.511 149.817 190.891 149.572 191.28C148.432 193.083 148.035 194.725 147.883 195.342C145.391 205.602 144.965 206.983 144.91 207.156L144.889 207.194L144.876 207.262C144.712 208.191 144.551 209.132 144.391 210.078C145.645 211.104 147.503 211.4 149.339 211.282C150.222 209.601 151.109 207.921 151.987 206.223C152.637 204.969 153.287 203.719 153.933 202.469C153.921 205.244 153.929 208.03 153.942 210.805C155.606 211.489 157.434 211.624 159.148 211.324Z" fill="url(#paint20_linear_1_944)"/>
<path d="M158.95 197.474C159.566 196.697 160.044 195.823 160.238 194.776C160.495 193.378 160.2 192.124 160.018 191.351C159.896 190.841 159.731 190.385 159.718 190.355C159.579 189.979 159.41 189.608 159.216 189.257L159.043 188.94L158.697 189.05C158.414 189.139 158.127 189.211 157.835 189.27C157.59 189.316 157.383 189.342 157.244 189.363L157.113 189.38C156.357 189.489 154.871 189.671 150.687 189.988L150.497 190L150.378 190.152C150.091 190.511 149.821 190.891 149.576 191.28C148.136 193.56 147.634 196.566 146.933 199.163C146.409 201.105 145.915 203.06 145.455 205.02C145.341 205.51 144.023 209.77 144.399 210.078C145.653 211.104 147.511 211.4 149.348 211.282C150.231 209.601 151.117 207.921 151.996 206.223C153.064 204.167 153.972 202.229 155.682 200.628C156.775 199.602 158.021 198.644 158.95 197.474Z" fill="url(#paint21_linear_1_944)"/>
<path d="M154.95 168.44C154.764 168.871 154.579 169.306 154.393 169.736C153.835 170.082 153.278 170.425 152.721 170.771C152.856 171.011 152.995 171.248 153.13 171.489C153.084 172.346 153.033 173.207 152.987 174.064C153.337 174.318 153.89 174.668 154.629 174.93C154.857 175.01 154.954 175.006 156.973 175.078C157.838 175.107 158.273 175.12 158.468 174.883C158.696 174.609 158.666 174.132 158.535 173.815C158.404 173.494 158.24 173.52 158.092 173.207C157.855 172.717 158.147 172.434 157.999 171.974C157.851 171.518 157.505 171.611 156.964 171.045C156.352 170.408 156.479 169.985 155.871 169.23C155.546 168.828 155.191 168.584 154.95 168.44Z" fill="#72594B"/>
<path d="M140.218 177.193C141.611 178.093 143.343 179.055 145.403 179.904C147.041 180.58 148.57 181.053 149.921 181.39C149.913 182.539 149.866 183.747 149.773 185.013C149.609 187.239 149.317 189.291 148.963 191.144C150.124 191.676 151.817 192.293 153.941 192.542C156.749 192.876 159.054 192.415 160.452 192.023C160.515 189.498 160.824 186.508 161.643 183.236C161.82 182.522 162.014 181.838 162.213 181.183C162.563 180.048 162.141 178.802 161.149 178.147C161.14 178.143 161.136 178.139 161.128 178.135C161.128 178.135 160.963 178.025 160.71 177.873C160.71 177.873 160.245 177.594 159.764 177.354C157.741 176.344 154.047 176.002 154.047 176.002C149.001 175.534 149.174 175.622 148.198 175.466C145.889 175.095 144.06 174.457 142.874 173.976C141.7 170.399 140.526 166.823 139.348 163.25C137.596 163.707 138.305 163.521 136.553 163.977C137 166.274 137.575 168.731 138.314 171.311C138.917 173.406 139.559 175.365 140.218 177.193Z" fill="url(#paint22_linear_1_944)"/>
<path d="M157.521 231.068C156.508 231.068 155.49 231.068 154.477 231.068C154.519 230.544 154.548 229.991 154.557 229.409C154.561 229.045 154.557 228.691 154.548 228.349C154.966 228.277 155.482 228.222 156.064 228.235C156.588 228.243 157.052 228.302 157.437 228.378C157.377 228.826 157.344 229.358 157.382 229.962C157.407 230.367 157.458 230.739 157.521 231.068Z" fill="#DFE1E5"/>
<path d="M144.474 233.302C143.461 233.302 142.443 233.302 141.43 233.302C141.455 232.761 141.949 231.114 141.97 230.574C142.523 230.511 143.081 230.443 143.647 230.371C144.149 230.308 144.647 230.24 145.137 230.173C145.002 230.667 144.875 231.19 144.761 231.744C144.647 232.28 144.554 232.803 144.474 233.302Z" fill="#DFE1E5"/>
<path d="M156.964 232.246C156.119 232.246 155.431 232.926 155.414 233.766C155.942 233.766 156.474 233.766 157.002 233.766V232.25C156.989 232.25 156.976 232.246 156.964 232.246Z" fill="#B3BAC5"/>
<path d="M156.851 232.246C157.695 232.246 158.383 232.926 158.4 233.766C157.872 233.766 157.34 233.766 156.812 233.766V232.25C156.825 232.25 156.838 232.246 156.851 232.246Z" fill="#B3BAC5"/>
<path d="M155.107 230.849C155.107 230.853 155.103 230.861 155.099 230.861C155.044 230.887 154.884 230.384 154.656 230.287C154.221 230.093 154.618 231.385 153.655 232.221C153.22 232.597 152.793 232.804 152.456 232.918C152.329 232.96 152.24 233.112 152.24 233.285V233.644H158.063C158.076 233.184 158.05 232.593 157.894 231.921C157.797 231.507 157.67 231.144 157.544 230.845H155.107V230.849Z" fill="#42526E"/>
<path d="M144.977 234.48C144.133 234.48 143.445 235.16 143.428 236C143.956 236 144.488 236 145.015 236V234.484C145.007 234.484 144.994 234.48 144.977 234.48Z" fill="#B3BAC5"/>
<path d="M142.058 233.078C142.058 233.083 142.054 233.091 142.05 233.091C141.995 233.116 141.834 232.614 141.606 232.517C141.172 232.322 140.458 233.615 139.191 234.451C138.617 234.826 138.051 235.033 137.604 235.147C137.435 235.19 137.316 235.342 137.316 235.515V235.874H145.014C145.027 235.413 145.001 234.822 144.845 234.151C144.748 233.737 144.621 233.374 144.495 233.074H142.058V233.078Z" fill="#42526E"/>
<path d="M153.126 171.484C153.08 171.518 152.97 171.611 152.911 171.772C152.843 171.953 152.881 172.114 152.894 172.164C153.055 172.245 153.274 172.337 153.544 172.392C153.734 172.43 153.903 172.443 154.047 172.443C154.034 172.574 154.013 172.751 153.983 172.967C153.907 173.528 153.861 173.583 153.815 173.608C153.637 173.71 153.266 173.499 153.118 173.203C153.05 173.068 153.042 172.941 153.046 172.857C152.962 172.929 152.746 173.131 152.666 173.469C152.56 173.912 152.75 174.276 152.818 174.352C153.071 174.643 153.451 174.968 153.967 175.044C154.038 175.057 154.093 175.057 154.127 175.061C156.319 175.171 156.466 175.171 156.601 175.129C157.839 174.757 157.754 170.969 157.75 170.805C157.294 170.53 156.834 170.252 156.378 169.977C156.428 170.062 156.851 170.754 156.547 171.522C156.5 171.636 156.247 172.278 155.736 172.38C155.204 172.481 154.925 171.898 153.891 171.611C153.57 171.522 153.299 171.497 153.126 171.484Z" fill="#172B4D"/>
</g>
<defs>
<linearGradient id="paint0_linear_1_944" x1="83.4081" y1="44.7647" x2="97.485" y2="44.7647" gradientUnits="userSpaceOnUse">
<stop stop-color="#344563"/>
<stop offset="0.5204" stop-color="#172B4D"/>
</linearGradient>
<linearGradient id="paint1_linear_1_944" x1="78.8862" y1="39.1958" x2="78.8862" y2="35.1627" gradientUnits="userSpaceOnUse">
<stop stop-color="#A17F68"/>
<stop offset="1" stop-color="#916D5A"/>
</linearGradient>
<linearGradient id="paint2_linear_1_944" x1="62.6215" y1="43.6946" x2="76.6771" y2="43.6946" gradientUnits="userSpaceOnUse">
<stop stop-color="#344563"/>
<stop offset="0.5204" stop-color="#091E42"/>
</linearGradient>
<linearGradient id="paint3_linear_1_944" x1="71.1482" y1="48.1486" x2="79.0249" y2="40.2719" gradientUnits="userSpaceOnUse">
<stop offset="0.4796" stop-color="#172B4D"/>
<stop offset="1" stop-color="#344563"/>
</linearGradient>
<linearGradient id="paint4_linear_1_944" x1="83.927" y1="50.4278" x2="83.927" y2="37.724" gradientUnits="userSpaceOnUse">
<stop offset="0.4796" stop-color="#172B4D"/>
<stop offset="1" stop-color="#344563"/>
</linearGradient>
<radialGradient id="paint5_radial_1_944" cx="0" cy="0" r="1" gradientUnits="userSpaceOnUse" gradientTransform="translate(97.6784 134.151) scale(40.7549)">
<stop stop-color="#FFF0B2"/>
<stop offset="0.1584" stop-color="#FFE587" stop-opacity="0.8416"/>
<stop offset="0.3589" stop-color="#FFDA57" stop-opacity="0.6411"/>
<stop offset="0.5498" stop-color="#FFD031" stop-opacity="0.4502"/>
<stop offset="0.7256" stop-color="#FFC916" stop-opacity="0.2744"/>
<stop offset="0.8811" stop-color="#FFC506" stop-opacity="0.1189"/>
<stop offset="1" stop-color="#FFC400" stop-opacity="0"/>
</radialGradient>
<linearGradient id="paint6_linear_1_944" x1="52.2221" y1="152.247" x2="43.7465" y2="201.951" gradientUnits="userSpaceOnUse">
<stop stop-color="#0747A6"/>
<stop offset="1" stop-color="#0747A6" stop-opacity="0.1"/>
</linearGradient>
<linearGradient id="paint7_linear_1_944" x1="118.961" y1="147.641" x2="110.485" y2="197.346" gradientUnits="userSpaceOnUse">
<stop stop-color="#008DA6"/>
<stop offset="1" stop-color="#008DA6" stop-opacity="0.1"/>
</linearGradient>
<linearGradient id="paint8_linear_1_944" x1="130.498" y1="187.227" x2="166.158" y2="151.568" gradientUnits="userSpaceOnUse">
<stop stop-color="#C1C7D0"/>
<stop offset="1" stop-color="#DFE1E5"/>
</linearGradient>
<linearGradient id="paint9_linear_1_944" x1="124.438" y1="181.167" x2="160.097" y2="145.507" gradientUnits="userSpaceOnUse">
<stop stop-color="#00B8D9"/>
<stop offset="1" stop-color="#79E2F2"/>
</linearGradient>
<linearGradient id="paint10_linear_1_944" x1="85.5426" y1="92.9512" x2="77.067" y2="142.655" gradientUnits="userSpaceOnUse">
<stop stop-color="#A5ADBA"/>
<stop offset="1" stop-color="#A5ADBA" stop-opacity="0.1"/>
</linearGradient>
<linearGradient id="paint11_linear_1_944" x1="97.5364" y1="129.903" x2="133.196" y2="94.2432" gradientUnits="userSpaceOnUse">
<stop stop-color="#C1C7D0"/>
<stop offset="1" stop-color="#DFE1E5"/>
</linearGradient>
<linearGradient id="paint12_linear_1_944" x1="19.0561" y1="190.638" x2="10.5805" y2="240.342" gradientUnits="userSpaceOnUse">
<stop stop-color="#0747A6"/>
<stop offset="1" stop-color="#0747A6" stop-opacity="0.1"/>
</linearGradient>
<linearGradient id="paint13_linear_1_944" x1="85.0088" y1="190.634" x2="76.5332" y2="240.338" gradientUnits="userSpaceOnUse">
<stop stop-color="#0747A6"/>
<stop offset="1" stop-color="#0747A6" stop-opacity="0.1"/>
</linearGradient>
<linearGradient id="paint14_linear_1_944" x1="151.015" y1="190.621" x2="142.54" y2="240.325" gradientUnits="userSpaceOnUse">
<stop stop-color="#0747A6"/>
<stop offset="1" stop-color="#0747A6" stop-opacity="0.1"/>
</linearGradient>
<linearGradient id="paint15_linear_1_944" x1="181.29" y1="226.934" x2="181.29" y2="188.576" gradientUnits="userSpaceOnUse">
<stop stop-color="#0065FF"/>
<stop offset="1" stop-color="#4C9AFF"/>
</linearGradient>
<linearGradient id="paint16_linear_1_944" x1="137.811" y1="135.209" x2="156.858" y2="135.209" gradientUnits="userSpaceOnUse">
<stop stop-color="#FFF0B2"/>
<stop offset="1" stop-color="#FFC400"/>
</linearGradient>
<linearGradient id="paint17_linear_1_944" x1="136.85" y1="127.591" x2="142.73" y2="127.591" gradientUnits="userSpaceOnUse">
<stop stop-color="#FFF0B2"/>
<stop offset="1" stop-color="#FFC400"/>
</linearGradient>
<linearGradient id="paint18_linear_1_944" x1="43.5705" y1="136.162" x2="62.294" y2="136.162" gradientUnits="userSpaceOnUse">
<stop stop-color="#FFC400"/>
<stop offset="1" stop-color="#FFF0B2"/>
</linearGradient>
<linearGradient id="paint19_linear_1_944" x1="-nan" y1="-nan" x2="-nan" y2="-nan" gradientUnits="userSpaceOnUse">
<stop offset="0.5364" stop-color="#C1C7D0"/>
<stop offset="1" stop-color="#C1C7D0" stop-opacity="0"/>
</linearGradient>
<linearGradient id="paint20_linear_1_944" x1="152.57" y1="211.475" x2="152.57" y2="188.94" gradientUnits="userSpaceOnUse">
<stop stop-color="#FF991F"/>
<stop offset="1" stop-color="#FFC400"/>
</linearGradient>
<linearGradient id="paint21_linear_1_944" x1="144.328" y1="200.12" x2="160.338" y2="200.12" gradientUnits="userSpaceOnUse">
<stop stop-color="#FF991F"/>
<stop offset="1" stop-color="#FFC400"/>
</linearGradient>
<linearGradient id="paint22_linear_1_944" x1="135.491" y1="165.042" x2="161.462" y2="191.014" gradientUnits="userSpaceOnUse">
<stop stop-color="#FFF0B2"/>
<stop offset="1" stop-color="#FFC400"/>
</linearGradient>
<clipPath id="clip0_1_944">
<rect width="197.769" height="236" fill="white"/>
</clipPath>
</defs>
</svg>
