<svg width="82" height="10" viewBox="0 0 82 10" fill="none" xmlns="http://www.w3.org/2000/svg">
<path d="M4.95312 9V2.00391H7.49023V0.544922H0.646484V2.00391H3.18359V9H4.95312ZM10.8242 5.90625H12.2715L13.8477 9H15.8516L14.0703 5.64258C15.043 5.26172 15.6055 4.32422 15.6055 3.24023C15.6055 1.57031 14.4629 0.544922 12.6055 0.544922H9.05469V9H10.8242V5.90625ZM10.8242 1.92773H12.3594C13.2383 1.92773 13.7891 2.44336 13.7891 3.26367C13.7891 4.10156 13.2676 4.58789 12.377 4.58789H10.8242V1.92773ZM22.8184 9H24.7344L21.7988 0.544922H19.7188L16.7832 9H18.5586L19.209 6.94922H22.1797L22.8184 9ZM20.6504 2.26172H20.7559L21.8047 5.625H19.5898L20.6504 2.26172ZM27.8691 9V3.5918H27.9746L31.877 9H33.3418V0.544922H31.6484V5.92969H31.543L27.6523 0.544922H26.1758V9H27.8691ZM35.0176 6.66211C35.082 8.22656 36.3887 9.2168 38.4043 9.2168C40.5254 9.2168 41.832 8.17383 41.832 6.48633C41.832 5.17969 41.0996 4.44727 39.4004 4.08398L38.3809 3.86719C37.3906 3.65039 36.9863 3.33984 36.9863 2.80664C36.9863 2.14453 37.5723 1.7168 38.457 1.7168C39.3125 1.7168 39.9336 2.16797 40.0156 2.85938H41.6797C41.627 1.36523 40.3086 0.328125 38.4453 0.328125C36.4941 0.328125 35.2109 1.37109 35.2109 2.94727C35.2109 4.23047 35.9668 5.02148 37.5078 5.34961L38.6094 5.58984C39.6465 5.81836 40.0684 6.14062 40.0684 6.69727C40.0684 7.35352 39.418 7.81641 38.498 7.81641C37.502 7.81641 36.8105 7.36523 36.7285 6.66211H35.0176ZM45.2773 9V5.67188H48.7168V4.27148H45.2773V2.00391H49.0449V0.544922H43.5078V9H45.2773ZM56.2812 7.54102H52.4492V5.40234H56.0645V4.04297H52.4492V2.00391H56.2812V0.544922H50.6797V9H56.2812V7.54102ZM59.9141 5.90625H61.3613L62.9375 9H64.9414L63.1602 5.64258C64.1328 5.26172 64.6953 4.32422 64.6953 3.24023C64.6953 1.57031 63.5527 0.544922 61.6953 0.544922H58.1445V9H59.9141V5.90625ZM59.9141 1.92773H61.4492C62.3281 1.92773 62.8789 2.44336 62.8789 3.26367C62.8789 4.10156 62.3574 4.58789 61.4668 4.58789H59.9141V1.92773ZM72.0781 7.54102H68.2461V5.40234H71.8613V4.04297H68.2461V2.00391H72.0781V0.544922H66.4766V9H72.0781V7.54102ZM73.9414 0.544922V9H77.2695C79.8008 9 81.2363 7.45312 81.2363 4.7168C81.2363 2.0625 79.7832 0.544922 77.2695 0.544922H73.9414ZM75.7109 2.00391H76.9883C78.5234 2.00391 79.4316 3 79.4316 4.74609C79.4316 6.55664 78.5527 7.54102 76.9883 7.54102H75.7109V2.00391Z" fill="#42526E"/>
</svg>
