<svg width="85" height="10" viewBox="0 0 85 10" fill="none" xmlns="http://www.w3.org/2000/svg">
<path d="M1.8457 0.544922V5.90039C1.8457 6.43945 2 6.86523 2.30859 7.17773C2.62109 7.49023 3.05664 7.64648 3.61523 7.64648C4.17773 7.64648 4.61328 7.49023 4.92188 7.17773C5.23438 6.86523 5.39062 6.43945 5.39062 5.90039V0.544922H7.16016V6.08203C7.16016 7.02344 6.83789 7.78125 6.19336 8.35547C5.55273 8.92969 4.69336 9.2168 3.61523 9.2168C2.54102 9.2168 1.68164 8.92969 1.03711 8.35547C0.396484 7.78125 0.0761719 7.02344 0.0761719 6.08203V0.544922H1.8457ZM10.916 9H9.22266V0.544922H10.6992L14.5898 5.8125H14.6953V0.544922H16.3887V9H14.9238L11.0215 3.70898H10.916V9ZM23.877 9L23.2383 6.98438H20.2676L19.6172 9H17.8418L20.7773 0.544922H22.8574L25.793 9H23.877ZM21.709 2.30273L20.6484 5.61914H22.8633L21.8145 2.30273H21.709ZM27.2344 0.544922H30.7617C31.6328 0.544922 32.3379 0.814453 32.877 1.35352C33.4199 1.88867 33.6914 2.59375 33.6914 3.46875C33.6914 4.33594 33.4121 5.03711 32.8535 5.57227C32.2949 6.10742 31.5684 6.375 30.6738 6.375H29.0039V9H27.2344V0.544922ZM29.0039 1.99805V4.93945H30.2871C30.7988 4.93945 31.1934 4.81445 31.4707 4.56445C31.752 4.31055 31.8926 3.94727 31.8926 3.47461C31.8926 2.99805 31.7539 2.63281 31.4766 2.37891C31.1992 2.125 30.8047 1.99805 30.293 1.99805H29.0039ZM35.3203 0.544922H38.8477C39.7188 0.544922 40.4238 0.814453 40.9629 1.35352C41.5059 1.88867 41.7773 2.59375 41.7773 3.46875C41.7773 4.33594 41.498 5.03711 40.9395 5.57227C40.3809 6.10742 39.6543 6.375 38.7598 6.375H37.0898V9H35.3203V0.544922ZM37.0898 1.99805V4.93945H38.373C38.8848 4.93945 39.2793 4.81445 39.5566 4.56445C39.8379 4.31055 39.9785 3.94727 39.9785 3.47461C39.9785 2.99805 39.8398 2.63281 39.5625 2.37891C39.2852 2.125 38.8906 1.99805 38.3789 1.99805H37.0898ZM45.1758 1.97461V4.57617H46.7285C47.1738 4.57617 47.5195 4.46289 47.7656 4.23633C48.0156 4.00586 48.1406 3.6875 48.1406 3.28125C48.1406 2.87891 48.0117 2.56055 47.7539 2.32617C47.4961 2.0918 47.1484 1.97461 46.7109 1.97461H45.1758ZM45.1758 5.93555V9H43.4062V0.544922H46.957C47.8867 0.544922 48.6191 0.787109 49.1543 1.27148C49.6895 1.75586 49.957 2.41797 49.957 3.25781C49.957 3.80469 49.8203 4.29492 49.5469 4.72852C49.2773 5.1582 48.9023 5.46875 48.4219 5.66016L50.2031 9H48.1992L46.623 5.93555H45.1758ZM55.4355 0.328125C56.6855 0.328125 57.6738 0.726562 58.4004 1.52344C59.1309 2.32031 59.4961 3.40234 59.4961 4.76953C59.4961 6.14062 59.1309 7.22461 58.4004 8.02148C57.6738 8.81836 56.6855 9.2168 55.4355 9.2168C54.1816 9.2168 53.1895 8.81836 52.459 8.02148C51.7285 7.22461 51.3633 6.14062 51.3633 4.76953C51.3633 3.40234 51.7305 2.32031 52.4648 1.52344C53.1992 0.726562 54.1895 0.328125 55.4355 0.328125ZM57.0762 2.66602C56.6699 2.14258 56.123 1.88086 55.4355 1.88086C54.748 1.88086 54.1992 2.14258 53.7891 2.66602C53.3789 3.18555 53.1738 3.88672 53.1738 4.76953C53.1738 5.65234 53.377 6.35547 53.7832 6.87891C54.1934 7.40234 54.7441 7.66406 55.4355 7.66406C56.123 7.66406 56.6699 7.40234 57.0762 6.87891C57.4863 6.35547 57.6914 5.65234 57.6914 4.76953C57.6914 3.88672 57.4863 3.18555 57.0762 2.66602ZM65.2969 9H63.1582L60.2988 0.544922H62.2969L64.2188 7.00781H64.3242L66.2109 0.544922H68.1152L65.2969 9ZM75.1641 7.48828V9H69.5625V0.544922H75.1641V2.05664H71.332V4.03125H74.9473V5.43164H71.332V7.48828H75.1641ZM77.0273 0.539062H80.3555C81.6133 0.539062 82.5879 0.904297 83.2793 1.63477C83.9746 2.36133 84.3223 3.38672 84.3223 4.71094C84.3223 6.08203 83.9766 7.14062 83.2852 7.88672C82.5977 8.62891 81.6211 9 80.3555 9H77.0273V0.539062ZM78.7969 2.05078V7.48828H80.0742C80.8594 7.48828 81.4629 7.25391 81.8848 6.78516C82.3066 6.3125 82.5176 5.63086 82.5176 4.74023C82.5176 3.88867 82.3027 3.22852 81.873 2.75977C81.4434 2.28711 80.8438 2.05078 80.0742 2.05078H78.7969Z" fill="#42526E"/>
</svg>
